<svg xmlns="http://www.w3.org/2000/svg" width="30" height="15" fill="none"><path fill="#A4C639" d="M1 14.626c.086-6.198 5.496-11.28 12.44-11.95h3.12c6.945.67 12.354 5.753 12.44 11.95H1Z"/><path stroke="#A4C639" stroke-linecap="round" stroke-linejoin="round" stroke-width="3" d="m2.08 2.078 3.275 5.673M27.92 2.078l-3.275 5.673"/><path fill="#fff" d="M10.83 9.072c.002.866-.715 1.57-1.602 1.573-.887.002-1.608-.698-1.61-1.565v-.008c-.003-.867.714-1.571 1.6-1.573.888-.003 1.609.697 1.612 1.564v.009ZM22.819 9.072c.003.866-.715 1.57-1.602 1.573-.887.002-1.608-.698-1.61-1.565v-.008c-.003-.867.714-1.571 1.601-1.573.887-.003 1.608.697 1.61 1.564v.009Z"/></svg>