<svg xmlns="http://www.w3.org/2000/svg" width="15" height="14" fill="none"><path fill="#3981F3" stroke="#fff" stroke-width=".15" d="m11.06 5.241.061-.022c.586-.21 1.157-.474 1.706-.791l.07-.041.035.074c.362.771.566 1.632.566 2.539 0 .907-.204 1.768-.566 2.54l-.034.073-.071-.04a10.52 10.52 0 0 0-1.705-.792l-.06-.022.011-.063c.108-.553.166-1.12.166-1.696l-.178-1.759Zm0 0 .013.063m-.012-.063.012.063m0 0c.108.553.166 1.12.166 1.696l-.166-1.696ZM7.77 12.788c1-.9 1.736-2.05 2.152-3.325l.025-.076-.078-.02a9.694 9.694 0 0 0-4.73.017l-.078.02.025.076a7.659 7.659 0 0 0 2.144 3.306.398.398 0 0 0 .54.002ZM4.82 8.426l.014.08.078-.02a10.627 10.627 0 0 1 5.182-.018l.077.02.014-.08A7.97 7.97 0 0 0 10.313 7a7.97 7.97 0 0 0-.127-1.409l-.015-.079-.077.02a10.624 10.624 0 0 1-5.182-.017l-.078-.02-.014.079A7.969 7.969 0 0 0 4.688 7c0 .483.046.96.131 1.426Zm2.412-7.214A7.658 7.658 0 0 0 5.085 4.52l-.025.076.078.02a9.697 9.697 0 0 0 4.73.017l.077-.02-.025-.076a7.66 7.66 0 0 0-2.15-3.323.398.398 0 0 0-.54-.001Zm5.126 2.417.072-.042-.048-.067a6.022 6.022 0 0 0-3.07-2.239l-.245-.077.164.197c.7.84 1.236 1.814 1.577 2.865l.025.074.073-.027a9.591 9.591 0 0 0 1.452-.684ZM5.77 1.4l.164-.197-.244.078A6.02 6.02 0 0 0 2.64 3.49l-.048.067.071.041a9.59 9.59 0 0 0 1.44.69l.074.027.024-.075a8.655 8.655 0 0 1 1.57-2.84ZM2.188 4.396l-.07-.042-.036.074A5.962 5.962 0 0 0 1.502 7c0 .92.209 1.792.58 2.572l.035.074.07-.042c.546-.32 1.114-.586 1.696-.8l.06-.022-.012-.063A8.866 8.866 0 0 1 3.761 7c0-.584.06-1.159.17-1.72l.012-.062-.06-.022c-.582-.214-1.15-.48-1.695-.8Zm.475 6.004-.071.042.048.067a6.02 6.02 0 0 0 3.05 2.21l.244.077-.164-.197a8.656 8.656 0 0 1-1.569-2.84l-.024-.075-.073.028a9.594 9.594 0 0 0-1.441.688ZM9.23 12.6l-.164.197.244-.078a6.02 6.02 0 0 0 3.07-2.238l.049-.068-.072-.04a9.611 9.611 0 0 0-1.452-.685l-.073-.027-.025.074A8.66 8.66 0 0 1 9.23 12.6ZM.575 7a6.925 6.925 0 1 1 13.85 0A6.925 6.925 0 0 1 .575 7Z"/></svg>