<svg xmlns="http://www.w3.org/2000/svg" width="26" height="26" fill="none"><path fill="#3981F3" stroke="#3981F3" stroke-width=".25" d="m2.129 23.898 1.531-3.982a.648.648 0 0 0-.067-.593A11.268 11.268 0 0 1 1.667 13C1.667 6.752 6.75 1.668 13 1.668c6.249 0 11.333 5.084 11.333 11.333 0 6.249-5.084 11.333-11.333 11.333-2.197 0-4.334-.636-6.178-1.84a.64.64 0 0 0-.57-.068l-4.123 1.472Zm-1.71.849a.643.643 0 0 0 .602.878.632.632 0 0 0 .217-.038l5.15-1.839A12.56 12.56 0 0 0 13 25.625c6.962 0 12.625-5.663 12.625-12.625S19.962.375 13 .375.375 6.038.375 13c0 2.41.676 4.74 1.962 6.759L.419 24.747Z"/><path fill="#3981F3" stroke="#3981F3" stroke-width=".25" d="M9.939 16.061c.67.67 1.795 1.496 2.957 2.154.581.33 1.175.619 1.728.826.55.206 1.07.334 1.501.334.876 0 1.686-.372 2.276-.894.587-.518.974-1.2.974-1.835v-1.042c0-.245-.14-.47-.361-.58l-.056.113.055-.113-.003-.001-.011-.006-.042-.02-.155-.077-.526-.26c-.418-.208-.936-.467-1.335-.672-.504-.259-1.041-.14-1.499.09-.424.213-.8.531-1.055.777-.465-.188-1.292-.589-1.973-1.27-.68-.68-1.08-1.507-1.269-1.973.245-.255.563-.63.776-1.055.23-.457.349-.994.091-1.497a128.676 128.676 0 0 1-.933-1.863l-.077-.155-.02-.042-.005-.01-.002-.004a.645.645 0 0 0-.58-.361h-1.04c-.635 0-1.317.386-1.836.973-.521.59-.894 1.4-.894 2.277 0 .43.128.95.334 1.5.207.554.496 1.147.826 1.729.658 1.161 1.484 2.287 2.154 2.957Zm4.478-1.06c.5-.496 1.562-1.367 2.466-.902L11 11.583c.177.454.59 1.354 1.327 2.091.736.736 1.636 1.151 2.09 1.327Zm1.931.135.002.001c.54.277 1.292.651 1.733.869v.64c0 .115-.048.263-.15.426-.1.161-.248.328-.43.48-.366.303-.86.531-1.378.531-.256 0-.626-.092-1.069-.26-.44-.168-.939-.407-1.449-.69-1.02-.566-2.07-1.303-2.754-1.986-.625-.625-1.362-1.653-1.943-2.677a11.69 11.69 0 0 1-.716-1.472c-.178-.456-.277-.845-.277-1.123 0-.519.228-1.012.531-1.378.152-.182.319-.33.48-.43.163-.102.311-.15.426-.15h.641c.218.44.59 1.194.867 1.73.006.014.014.062-.023.168a1.71 1.71 0 0 1-.185.351 4.177 4.177 0 0 1-.687.786.647.647 0 0 0-.192.664v.004c.03.098.496 1.647 1.726 2.878 1.243 1.242 2.81 1.706 2.882 1.726a.647.647 0 0 0 .664-.192c.228-.259.522-.515.787-.689.132-.087.253-.15.35-.185.106-.037.153-.028.164-.022Z"/></svg>