<svg xmlns="http://www.w3.org/2000/svg" width="16" height="18" fill="none"><g fill="#9CC0F9"><path d="m10.401 1.507.197-.294.193-.29.434-.652a.174.174 0 1 0-.29-.193l-.465.699-.196.293-.199.298A5.736 5.736 0 0 0 8.002.987c-.74 0-1.442.137-2.072.38l-.197-.297-.196-.293-.466-.7a.175.175 0 0 0-.29.194l.434.651.193.29.197.295C4.126 2.195 3.126 3.5 3.126 4.993h9.754c0-1.493-1-2.797-2.479-3.486ZM5.913 3.6a.522.522 0 1 1-.001-1.045.522.522 0 0 1 0 1.045Zm4.18 0a.522.522 0 1 1 0-1.045.522.522 0 0 1 0 1.045ZM3.201 5.69h-.075V13.355c0 .608.494 1.103 1.103 1.103h.796c-.026.092-.041.19-.041.29v2.207a1.046 1.046 0 0 0 2.09 0v-2.207c0-.1-.015-.198-.041-.29h1.94c-.026.092-.041.19-.041.29v2.207a1.046 1.046 0 0 0 2.09 0v-2.207c0-.1-.015-.198-.041-.29h.796c.608 0 1.103-.495 1.103-1.103V5.69H3.201ZM1.384 5.69c-.577 0-1.045.468-1.045 1.046v4.47a1.045 1.045 0 0 0 2.09 0v-4.47c0-.578-.468-1.046-1.045-1.046ZM14.623 5.69c-.578 0-1.045.468-1.045 1.046v4.47a1.045 1.045 0 0 0 2.089 0v-4.47c0-.578-.467-1.046-1.044-1.046Z"/></g></svg>