<svg xmlns="http://www.w3.org/2000/svg" width="16" height="16" fill="none"><path fill="#3981F3" d="M12.099 15.334a2.05 2.05 0 0 1-.434-.048 14.722 14.722 0 0 1-7.216-3.798A14.2 14.2 0 0 1 .542 4.433a1.988 1.988 0 0 1 .586-1.858L2.865.903A.868.868 0 0 1 3.533.67a.868.868 0 0 1 .63.378l2.17 3.208a.695.695 0 0 1-.047.825l-1.09 1.302a8.222 8.222 0 0 0 1.81 2.557 8.362 8.362 0 0 0 2.636 1.776l1.35-1.073a.712.712 0 0 1 .807-.052l3.278 2.119a.868.868 0 0 1 .178 1.35l-1.693 1.676a2.058 2.058 0 0 1-1.463.599ZM3.464 1.529 1.727 3.2a1.103 1.103 0 0 0-.325 1.042 13.327 13.327 0 0 0 3.65 6.625 13.848 13.848 0 0 0 6.79 3.573 1.195 1.195 0 0 0 1.086-.322l1.693-1.675-3.165-2.045-1.45 1.155a.432.432 0 0 1-.4.073 8.709 8.709 0 0 1-3.194-2.062A8.461 8.461 0 0 1 4.297 6.44a.434.434 0 0 1 .105-.413l1.172-1.402-2.11-3.095Z"/></svg>