<svg width="12" height="11" viewBox="0 0 12 11" fill="none" xmlns="http://www.w3.org/2000/svg">
<path d="M4.52081 3.71636L4.57585 4.21332C4.75145 4.19387 4.90375 4.08319 4.97648 3.92218L4.52081 3.71636ZM4.52081 3.71636L4.97649 3.92216L4.97652 3.9221L4.97663 3.92185L4.97708 3.92086L4.97886 3.91693L4.98584 3.90146L5.01285 3.84166L5.11343 3.61903L5.45586 2.86111C5.67546 2.37513 5.93909 1.7918 6.17632 1.26722L6.89669 2.86116L7.23929 3.61913L7.33994 3.84178L7.36697 3.90159L7.37396 3.91706L7.37574 3.92099L7.37619 3.92198L7.3763 3.92223L7.37633 3.92229L7.83195 3.71636M4.52081 3.71636L4.57583 4.21332L4.57576 4.21333L4.57549 4.21336L4.57441 4.21348L4.57012 4.21396L4.55326 4.21582L4.48804 4.22305L4.24526 4.24994L3.41871 4.34153L1.67994 4.53434C2.10521 4.92209 2.57845 5.35303 2.97285 5.71203L3.58799 6.27181L3.76871 6.43621L3.81725 6.48036L3.82981 6.49178L3.83299 6.49468L3.8338 6.49541L3.834 6.4956L3.83405 6.49564L3.49765 6.86556L3.83407 6.49566C3.96952 6.61885 4.02547 6.80464 3.98453 6.97944L3.982 6.99131L3.96877 7.05435L3.91912 7.29291L3.75048 8.10686C3.64246 8.62891 3.51297 9.25562 3.39668 9.81942C3.89699 9.53479 4.45303 9.21799 4.91628 8.95392L5.63874 8.54197L5.85092 8.42094L5.9079 8.38843L5.92264 8.38002L5.92638 8.37788L5.92733 8.37734L5.92756 8.37721L5.92762 8.37718L6.17544 8.81144M7.83195 3.71636L7.77695 4.21333L7.77702 4.21333L7.77729 4.21336L7.77837 4.21348L7.78265 4.21396L7.79952 4.21583L7.86474 4.22305L8.10757 4.24996L8.93426 4.34167C9.46453 4.40055 10.101 4.47132 10.6734 4.53522C10.2479 4.92251 9.77451 5.35328 9.38001 5.71218L8.76481 6.2718L8.58407 6.4362L8.53552 6.48036L8.52296 6.49178L8.51977 6.49468L8.51897 6.49541L8.51876 6.4956L8.51871 6.49564L8.85511 6.86556M7.83195 3.71636L7.37634 3.92231C7.4491 4.08326 7.60137 4.19388 7.77693 4.21332L7.83195 3.71636ZM6.17544 8.81144L6.42319 8.37714L6.42325 8.37717L6.42349 8.37731L6.42443 8.37784L6.42818 8.37998L6.44293 8.38839L6.49994 8.42091L6.7122 8.54198L7.43475 8.95404C7.89812 9.21827 8.45429 9.53539 8.95433 9.82038C8.83804 9.2562 8.70864 8.62907 8.60082 8.1067L8.43271 7.29237L8.38331 7.0532L8.37005 6.98896L8.36661 6.97234L8.36574 6.96812L8.36552 6.96705L8.36547 6.96679L8.36545 6.96672L8.85511 6.86556M6.17544 8.81144L5.92764 8.37716C6.0812 8.28955 6.2696 8.28953 6.42317 8.37713L6.17544 8.81144ZM8.85511 6.86556L8.36545 6.9667C8.3297 6.79364 8.38796 6.61456 8.5187 6.49566L8.85511 6.86556Z" stroke="#FFC107" stroke-linejoin="round"/>
</svg>
