<svg xmlns="http://www.w3.org/2000/svg" width="30" height="26" fill="none"><path fill="#3981F3" d="m1.21 12.64 6.986 3.481c.27.134.589.124.847-.027l6.219-3.615-3.764 3.335a.894.894 0 0 0-.301.67v8.123c0 .857 1.093 1.218 1.607.537l3.02-4.015 7.467 4.253a.893.893 0 0 0 1.317-.6l4.657-23.211c.14-.698-.554-1.267-1.2-1.007L1.285 11.009c-.72.28-.766 1.287-.074 1.63Zm25.984-9.82-4.093 20.4-7.076-4.031a.895.895 0 0 0-1.156.24l-1.887 2.507v-5.052L23.16 7.867c.806-.713-.12-1.981-1.04-1.44L8.562 14.308 3.811 11.94l23.383-9.12Z"/></svg>