<svg xmlns="http://www.w3.org/2000/svg" width="104" height="29" fill="none"><g fill="#5C41BE" clip-path="url(#a)"><path d="M62.12 6.6H45.983a1.394 1.394 0 1 0 0 2.788h6.671v17.6c0 .772.624 1.395 1.397 1.395.774 0 1.398-.623 1.398-1.394V9.388h6.67a1.394 1.394 0 1 0 0-2.788ZM81.27 25.53l-11.61-.06V7.995c0-.772-.625-1.394-1.398-1.394-.773 0-1.398.622-1.398 1.394v18.555c0 .935.761 1.697 1.699 1.704l12.695.065h.006c.767 0 1.395-.62 1.398-1.388a1.396 1.396 0 0 0-1.391-1.4ZM103.444 26.527 97.888 7.82a1.72 1.72 0 0 0-1.636-1.22h-3.025c-.755 0-1.428.505-1.64 1.223l-5.524 18.772a1.392 1.392 0 0 0 1.341 1.785c.606 0 1.162-.394 1.342-1.001l1.78-6.05h8.459l1.779 5.988a1.396 1.396 0 0 0 2.68-.79Zm-12.099-7.986 2.693-9.153h1.397l2.72 9.153h-6.81ZM39.847 9.453a1.394 1.394 0 1 0 0-2.788H27.56c-.941 0-1.708.765-1.708 1.704V26.61c0 .935.76 1.697 1.698 1.703l12.292.066h.006a1.394 1.394 0 1 0 .006-2.788l-11.21-.06v-6.99h9.049a1.394 1.394 0 1 0 0-2.789h-9.05v-6.3h11.205ZM19.563 8.027a1.706 1.706 0 0 0-1.683-1.419h-2.838c-.857 0-1.587.638-1.693 1.475l-1.438 10.445h-.919L9.293 8.008l-.006-.034a1.707 1.707 0 0 0-1.68-1.394H4.762c-.863 0-1.59.645-1.695 1.497L.509 26.818a1.395 1.395 0 0 0 1.218 1.552 1.399 1.399 0 0 0 1.556-1.214L5.722 9.37h.956l1.7 10.52.005.031c.15.809.858 1.394 1.68 1.394h2.792c.857 0 1.587-.641 1.693-1.474l1.438-10.446h.972l2.768 17.825a1.4 1.4 0 0 0 1.612 1.143 1.394 1.394 0 0 0 1.143-1.608L19.56 8.03l.002-.003ZM11.5 5.34c.78 0 1.41-.63 1.41-1.407V1.789c0-.777-.63-1.406-1.41-1.406-.78 0-1.41.629-1.41 1.406v2.144c0 .777.63 1.406 1.41 1.406Z"/></g><defs><clipPath id="a"><path fill="#fff" d="M.5.383h103v28H.5z"/></clipPath></defs></svg>