<svg xmlns="http://www.w3.org/2000/svg" width="30" height="30" viewBox="0 0 30 30" fill="none">
  <path d="M11.875 0H1.875C0.841231 0 0 0.841231 0 1.875V11.875C0 12.9088 0.841231 13.75 1.875 13.75H11.875C12.9088 13.75 13.75 12.9088 13.75 11.875V1.875C13.75 0.841231 12.9087 0 11.875 0ZM12.5 11.875C12.5 12.2188 12.22 12.5 11.875 12.5H1.875C1.53 12.5 1.24998 12.2188 1.24998 11.875V1.875C1.24998 1.53123 1.53 1.24998 1.875 1.24998H11.875C12.22 1.24998 12.5 1.53123 12.5 1.875V11.875H12.5Z" fill="#3981F3"/>
  <path d="M28.125 0H18.125C17.0912 0 16.25 0.841231 16.25 1.875V11.875C16.25 12.9088 17.0912 13.75 18.125 13.75H28.125C29.1588 13.75 30 12.9088 30 11.875V1.875C30 0.841231 29.1588 0 28.125 0ZM28.75 11.875C28.75 12.2188 28.47 12.5 28.125 12.5H18.125C17.78 12.5 17.5 12.2188 17.5 11.875V1.875C17.5 1.53123 17.78 1.24998 18.125 1.24998H28.125C28.47 1.24998 28.75 1.53123 28.75 1.875V11.875Z" fill="#3981F3"/>
  <path d="M11.875 16.25H1.875C0.841231 16.25 0 17.0912 0 18.125V28.125C0 29.1588 0.841231 30 1.875 30H11.875C12.9088 30 13.75 29.1588 13.75 28.125V18.125C13.75 17.0913 12.9087 16.25 11.875 16.25ZM12.5 28.125C12.5 28.4688 12.22 28.75 11.875 28.75H1.875C1.53 28.75 1.24998 28.4688 1.24998 28.125V18.125C1.24998 17.7812 1.53 17.4999 1.875 17.4999H11.875C12.22 17.4999 12.5 17.7812 12.5 18.125V28.125H12.5Z" fill="#3981F3"/>
  <path d="M28.125 16.25H18.125C17.0912 16.25 16.25 17.0912 16.25 18.125V28.125C16.25 29.1588 17.0912 30 18.125 30H28.125C29.1588 30 30 29.1588 30 28.125V18.125C30 17.0913 29.1588 16.25 28.125 16.25Z" fill="#3981F3"/>
</svg>