<svg xmlns="http://www.w3.org/2000/svg" width="119" height="34" fill="none"><g fill="#fff" clip-path="url(#a)"><path d="M71.192 8.05H52.549c-.893 0-1.614.735-1.614 1.644 0 .909.72 1.642 1.614 1.642h7.707v20.745c0 .909.721 1.642 1.614 1.642.894 0 1.615-.733 1.615-1.642V11.336h7.707c.893 0 1.614-.733 1.614-1.642 0-.91-.72-1.643-1.614-1.643ZM93.318 30.361l-13.415-.07V9.695c0-.91-.721-1.643-1.615-1.643-.893 0-1.614.734-1.614 1.643v21.868c0 1.103.879 2 1.962 2.008l14.668.077h.007c.886 0 1.61-.73 1.614-1.636.004-.905-.713-1.646-1.607-1.65ZM118.935 31.537l-6.419-22.048a1.991 1.991 0 0 0-1.89-1.438h-3.495a1.99 1.99 0 0 0-1.894 1.442l-6.383 22.124c-.251.869.24 1.785 1.094 2.037.151.044.305.066.456.066a1.62 1.62 0 0 0 1.55-1.18l2.056-7.13h9.773l2.056 7.058c.255.868 1.152 1.369 2.006 1.11.853-.26 1.341-1.172 1.09-2.041Zm-13.978-9.412 3.11-10.789h1.615l3.143 10.789h-7.868ZM45.459 11.413c.893 0 1.614-.734 1.614-1.643 0-.91-.72-1.643-1.614-1.643H31.26c-1.087 0-1.973.902-1.973 2.008v21.5c0 1.102.88 2 1.963 2.008l14.2.076h.008c.886 0 1.61-.73 1.614-1.635.004-.91-.714-1.647-1.607-1.65l-12.952-.07v-8.24h10.455c.893 0 1.614-.733 1.614-1.643 0-.909-.72-1.643-1.614-1.643H32.514v-7.425h12.945ZM22.025 9.732A1.982 1.982 0 0 0 20.08 8.06H16.8c-.99 0-1.833.752-1.955 1.738l-1.661 12.31h-1.062L10.159 9.71l-.007-.04a1.983 1.983 0 0 0-1.94-1.643H4.924c-.998 0-1.837.76-1.96 1.764L.012 31.879c-.108.902.524 1.72 1.406 1.83.883.109 1.69-.534 1.798-1.432l2.818-20.96h1.105l1.963 12.398.007.037c.172.952.99 1.643 1.941 1.643h3.226c.99 0 1.833-.756 1.955-1.738l1.661-12.311h1.123l3.199 21.008a1.626 1.626 0 0 0 1.862 1.347 1.64 1.64 0 0 0 1.32-1.895l-3.374-22.07.004-.004ZM12.709 6.564c.9 0 1.629-.741 1.629-1.657V2.38c0-.916-.728-1.657-1.629-1.657-.9 0-1.629.74-1.629 1.657v2.527c0 .916.728 1.657 1.629 1.657Z"/></g><defs><clipPath id="a"><path fill="#fff" d="M0 .723h119v33H0z"/></clipPath></defs></svg>