<svg xmlns="http://www.w3.org/2000/svg" width="30" height="30" fill="none"><path fill="#fff" d="M11.875 0h-10A1.877 1.877 0 0 0 0 1.875v10c0 1.034.841 1.875 1.875 1.875h10a1.877 1.877 0 0 0 1.875-1.875v-10A1.877 1.877 0 0 0 11.875 0Zm.625 11.875c0 .344-.28.625-.625.625h-10a.626.626 0 0 1-.625-.625v-10c0-.344.28-.625.625-.625h10c.345 0 .625.281.625.625v10ZM28.125 0h-10a1.877 1.877 0 0 0-1.875 1.875v10c0 1.034.841 1.875 1.875 1.875h10A1.877 1.877 0 0 0 30 11.875v-10A1.877 1.877 0 0 0 28.125 0Zm.625 11.875c0 .344-.28.625-.625.625h-10a.626.626 0 0 1-.625-.625v-10c0-.344.28-.625.625-.625h10c.345 0 .625.281.625.625v10ZM11.875 16.25h-10A1.877 1.877 0 0 0 0 18.125v10C0 29.159.841 30 1.875 30h10a1.877 1.877 0 0 0 1.875-1.875v-10a1.877 1.877 0 0 0-1.875-1.875Zm.625 11.875c0 .344-.28.625-.625.625h-10a.626.626 0 0 1-.625-.625v-10c0-.344.28-.625.625-.625h10c.345 0 .625.281.625.625v10Z"/><path fill="#3981F3" d="M28.125 16.25h-10a1.877 1.877 0 0 0-1.875 1.875v10c0 1.034.841 1.875 1.875 1.875h10A1.877 1.877 0 0 0 30 28.125v-10a1.877 1.877 0 0 0-1.875-1.875Zm.625 11.875c0 .344-.28.625-.625.625h-10a.626.626 0 0 1-.625-.625v-10c0-.344.28-.625.625-.625h10c.345 0 .625.281.625.625v10Z"/></svg>