<svg xmlns="http://www.w3.org/2000/svg" width="66" height="65" fill="none">
  <rect width="65" height="65" x=".5" fill="#0094D2" rx="32.5"/>
  <path fill="#fff" d="M27.84 22.485a.366.366 0 0 0-.376.366v2.255a.365.365 0 0 0 .37.366H39.04a.37.37 0 0 0 .37-.366v-2.255a.37.37 0 0 0-.376-.366h-1.117l-1.493-1.493H30.45l-1.493 1.493H27.84Z"/>
  <path fill="#fff" fill-rule="evenodd" d="M22.985 25.46c0-1.64 1.334-2.97 2.986-2.975v3.74c0 .419.34.74.762.74H40.14a.75.75 0 0 0 .762-.74v-3.74h-.009a2.986 2.986 0 0 1 2.995 2.975v16.449a2.984 2.984 0 0 1-2.995 2.974H25.98a2.987 2.987 0 0 1-2.995-2.974v-16.45Zm4.48 6.731c0 .4.334.747.746.747h10.452a.753.753 0 0 0 .747-.747c0-.4-.335-.746-.747-.746H28.211a.753.753 0 0 0-.747.746Zm0 5.973c0 .4.334.747.746.747h10.452a.753.753 0 0 0 .747-.747c0-.4-.335-.747-.747-.747H28.211a.753.753 0 0 0-.747.747Zm11.198-3.733H28.211a.747.747 0 1 0 0 1.493h10.452a.747.747 0 1 0 0-1.493Z" clip-rule="evenodd"/>
</svg>
