<svg width="66" height="66" fill="none" xmlns="http://www.w3.org/2000/svg"><rect x=".25" y=".125" width="65" height="65" rx="32.5" fill="#5C41BE"/><path d="M41.853 22.316H24.521a2.6 2.6 0 0 0-2.6 2.6v3.813a2.6 2.6 0 0 0 2.6 2.6h.52v9.88a2.6 2.6 0 0 0 2.6 2.6h11.092a2.6 2.6 0 0 0 2.6-2.6v-9.88h.52a2.6 2.6 0 0 0 2.6-2.6v-3.813a2.6 2.6 0 0 0-2.6-2.6zm-7.8 9.707v3.107l.601-.6a.867.867 0 0 1 1.226 1.225l-2.08 2.08a.867.867 0 0 1-1.226 0l-2.08-2.08a.865.865 0 0 1 .274-1.425.866.866 0 0 1 .952.2l.6.6v-3.107a.85.85 0 0 1 .373-.694h.988a.85.85 0 0 1 .373.694zm8.667-3.294a.866.866 0 0 1-.867.867h-.52v-2.427h.174a.867.867 0 0 0 0-1.733h-16.64a.867.867 0 0 0 0 1.733h.174v2.427h-.52a.867.867 0 0 1-.867-.867v-3.813a.867.867 0 0 1 .867-.866h17.332a.867.867 0 0 1 .867.866v3.813z" fill="#fff"/></svg>