<svg xmlns="http://www.w3.org/2000/svg" width="16" height="16" fill="none">
  <path fill="#fff" d="M4.109 3.35h1.149c.23 0 .413-.184.413-.414V1.083a.412.412 0 0 0-.413-.414h-1.15a.412.412 0 0 0-.413.414v1.853c.016.23.2.414.414.414ZM10.726 3.35h1.149c.23 0 .414-.184.414-.414V1.083a.412.412 0 0 0-.414-.414h-1.149a.412.412 0 0 0-.414.414v1.853c.016.23.2.414.414.414Z"/>
  <path fill="#fff" d="M13.545 2.186h-.26v.75A1.4 1.4 0 0 1 11.89 4.33h-1.15a1.4 1.4 0 0 1-1.393-1.394v-.75h-2.68v.75A1.4 1.4 0 0 1 5.272 4.33H4.124A1.4 1.4 0 0 1 2.73 2.936v-.75h-.26c-.92 0-1.655.72-1.655 1.623v1.992H15.17V3.809c.015-.903-.72-1.623-1.624-1.623ZM.815 13.583c0 .903.736 1.639 1.64 1.639h11.09c.904 0 1.64-.736 1.64-1.64v-6.8H.814v6.8ZM5.81 9.447c-.199-.2-.199-.506 0-.69a.5.5 0 0 1 .69 0l1.5 1.486 1.487-1.486a.5.5 0 0 1 .689 0c.2.2.2.506 0 .69l-1.486 1.486 1.486 1.486c.2.199.2.505 0 .689a.485.485 0 0 1-.352.138.54.54 0 0 1-.353-.138L8 11.638l-1.486 1.485a.485.485 0 0 1-.352.138.54.54 0 0 1-.353-.138c-.199-.199-.199-.505 0-.69l1.486-1.485L5.81 9.447Z"/>
</svg>
