<svg xmlns="http://www.w3.org/2000/svg" width="16" height="16" fill="none">
  <path fill="#fff" d="M14 .506H2a1.8 1.8 0 0 0-1.8 1.8v2.64a1.8 1.8 0 0 0 1.8 1.8h.36v6.84a1.8 1.8 0 0 0 1.8 1.8h7.68a1.8 1.8 0 0 0 1.8-1.8v-6.84H14a1.8 1.8 0 0 0 1.8-1.8v-2.64a1.8 1.8 0 0 0-1.8-1.8Zm-5.4 6.72v2.151l.416-.416a.6.6 0 0 1 .848.849l-1.44 1.44a.6.6 0 0 1-.848 0l-1.44-1.44a.6.6 0 1 1 .848-.849l.416.416V7.226a.589.589 0 0 1 .258-.48h.684a.589.589 0 0 1 .258.48Zm6-2.28a.6.6 0 0 1-.6.6h-.36v-1.68h.12a.6.6 0 1 0 0-1.2H2.24a.6.6 0 1 0 0 1.2h.12v1.68H2a.6.6 0 0 1-.6-.6v-2.64a.6.6 0 0 1 .6-.6h12a.6.6 0 0 1 .6.6v2.64Z"/>
</svg>
