<svg width="66" height="66" fill="none" xmlns="http://www.w3.org/2000/svg"><rect x=".75" y=".125" width="65" height="65" rx="32.5" fill="#5C41BE"/><path d="M27.63 25.987h1.66a.595.595 0 0 0 .597-.597v-2.677a.595.595 0 0 0-.598-.598h-1.66a.595.595 0 0 0-.597.598v2.677c.022.332.288.597.598.597zM37.188 25.987h1.66a.595.595 0 0 0 .597-.597v-2.677a.595.595 0 0 0-.597-.598h-1.66a.595.595 0 0 0-.597.598v2.677c.022.332.288.597.597.597z" fill="#fff"/><path d="M41.26 24.306h-.376v1.084a2.02 2.02 0 0 1-2.014 2.013h-1.66a2.02 2.02 0 0 1-2.013-2.013v-1.084h-3.872v1.084a2.02 2.02 0 0 1-2.014 2.013h-1.66a2.02 2.02 0 0 1-2.013-2.013v-1.084h-.376c-1.327 0-2.39 1.04-2.39 2.345v2.877h20.733V26.65c.022-1.305-1.04-2.345-2.345-2.345zM22.873 40.768a2.37 2.37 0 0 0 2.367 2.367h16.02a2.37 2.37 0 0 0 2.367-2.367v-9.825H22.873v9.825zm7.213-5.975c-.288-.287-.288-.73 0-.995.288-.266.73-.266.996 0l2.168 2.146 2.146-2.146c.288-.266.73-.266.996 0 .288.287.288.73 0 .995l-2.146 2.147 2.146 2.146c.288.288.288.73 0 .996a.7.7 0 0 1-.509.199.78.78 0 0 1-.509-.2l-2.124-2.123-2.146 2.146a.7.7 0 0 1-.51.199.78.78 0 0 1-.508-.2c-.288-.287-.288-.73 0-.995l2.146-2.146-2.146-2.169z" fill="#fff"/></svg>