<svg width="65" height="66" fill="none" xmlns="http://www.w3.org/2000/svg"><rect y=".125" width="65" height="65" rx="32.5" fill="#5C41BE"/><g fill="#fff"><path d="M37.83 36.003H27.205c-3.634 0-6.932 2.26-8.215 5.68l-.397.977c-.58 1.558.397 3.268 2.016 3.542a75.604 75.604 0 0 0 23.758 0 2.583 2.583 0 0 0 2.015-3.542l-.397-.977c-1.221-3.42-4.489-5.68-8.153-5.68zM39.419 25.834c0 4.673-3.085 9.223-6.902 9.223s-6.901-4.55-6.901-9.223c0-4.672 3.114-7.726 6.901-7.726s6.902 3.024 6.902 7.726z"/></g></svg>