<svg width="40" height="40" fill="none" xmlns="http://www.w3.org/2000/svg"><path d="M30.303 3.696c.259-.4.927-.381 1.168.03.571.9 1.127 1.81 1.7 2.71 1.014.241 2.023.499 3.034.754a.721.721 0 0 1 .572.814c-.024.182-.142.328-.255.463-.65.768-1.293 1.543-1.944 2.311.07 1.059.151 2.117.22 3.176.052.47-.46.88-.907.726-1.006-.383-1.993-.816-2.999-1.2-1.021.37-2.017.82-3.035 1.201-.443.151-.953-.258-.903-.724.069-1.06.15-2.119.22-3.179-.683-.815-1.37-1.627-2.05-2.445-.319-.358-.122-1.001.342-1.12 1.014-.26 2.031-.503 3.045-.763.088-.011.124-.098.17-.16.538-.866 1.074-1.734 1.622-2.594z" fill="#0094D2"/><path d="M5.236 8.978a4.932 4.932 0 0 1 2.944-.97c5.02-.003 10.04-.002 15.061-.002.033.524.207 1.044.548 1.45.531.635 1.065 1.268 1.599 1.902-.055.864-.13 1.728-.175 2.594-.032.982.594 1.938 1.503 2.308.584.25 1.267.255 1.856.017.771-.304 1.539-.62 2.308-.929.75.301 1.497.612 2.25.906.019 3.152.003 6.305.008 9.457-.01.754.052 1.52-.14 2.258-.376 1.605-1.613 2.969-3.17 3.51-.538.19-1.11.285-1.682.282-2.13-.002-4.26.003-6.39-.002-.097.006-.21-.019-.288.053-1.85 1.395-3.703 2.784-5.553 4.177-.332.262-.712.476-1.132.556-.947.2-1.985-.238-2.509-1.05a2.46 2.46 0 0 1-.404-1.426c.024-.77.055-1.539.08-2.308-1.28 0-2.56.001-3.84-.001a4.95 4.95 0 0 1-3.206-1.234 4.955 4.955 0 0 1-1.688-3.723c-.002-4.356-.001-8.712-.001-13.07.004-.553-.026-1.113.083-1.66a4.99 4.99 0 0 1 1.938-3.095zm7.113 7.273a1.042 1.042 0 0 0-.43 1.73c.232.242.577.333.905.311 3.777-.003 7.554.001 11.331-.002a1.05 1.05 0 0 0 .935-.576c.176-.334.141-.759-.077-1.065a1.074 1.074 0 0 0-.93-.448c-3.68-.002-7.358 0-11.037-.002-.232.003-.471-.015-.697.052zm.056 5.264c-.48.11-.834.594-.788 1.085.023.54.527.991 1.065.972h6.024c.74.06 1.336-.798 1.001-1.466-.162-.39-.58-.64-1-.624-1.96-.003-3.92.001-5.881-.002-.141.001-.283.003-.421.035z" fill="#5C41BE"/></svg>