<svg width="41" height="40" fill="none" xmlns="http://www.w3.org/2000/svg"><g clip-path="url(#a)"><mask id="b" style="mask-type:luminance" maskUnits="userSpaceOnUse" x="0" y="0" width="41" height="40"><path d="M40.474 0h-40v40h40V0z" fill="#fff"/></mask><g mask="url(#b)"><path d="M19.653 40h1.665c9.042 0 13.564 0 16.372-2.808s2.784-7.328 2.784-16.347v-1.69c0-9.017 0-13.539-2.784-16.347C34.906 0 30.36 0 21.318 0h-1.665C10.61 0 6.09 0 3.282 2.808.474 5.616.474 10.134.474 19.155v1.69c0 9.019 0 13.539 2.808 16.347C6.09 40 10.61 40 19.652 40z" fill="url(#c)"/><path d="M21.938 28.84c-9.02 0-14.493-6.258-14.706-16.656H11.8c.143 7.638 3.618 10.88 6.282 11.54v-11.54h4.38v6.59c2.569-.285 5.257-3.283 6.162-6.59h4.306c-.69 4.068-3.616 7.067-5.686 8.304 2.07 1 5.401 3.617 6.686 8.352h-4.734c-1-3.165-3.452-5.616-6.735-5.95v5.95h-.523z" fill="#fff"/></g></g><defs><linearGradient id="c" x1="26.56" y1="47.224" x2="-9.844" y2="32.612" gradientUnits="userSpaceOnUse"><stop stop-color="#5C41BE"/><stop offset="1" stop-color="#8067DC"/></linearGradient><clipPath id="a"><path fill="#fff" transform="translate(.474)" d="M0 0h40v40H0z"/></clipPath></defs></svg>