<svg width="40" height="40" fill="none" xmlns="http://www.w3.org/2000/svg"><path d="M8.016 6.69a6.135 6.135 0 0 1 3.534-1.65 6.31 6.31 0 0 1 3.334.542 10.037 10.037 0 0 0-4.01 4.507c-.98 2.173-1.141 4.7-.444 6.978a6.219 6.219 0 0 1-2.908-1.937c-1.038-1.24-1.568-2.895-1.413-4.507A6.139 6.139 0 0 1 8.016 6.69zM25.118 5.579c1.32-.604 2.85-.75 4.254-.36a6.181 6.181 0 0 1 4.518 5.4 6.18 6.18 0 0 1-1.108 4.117 6.184 6.184 0 0 1-3.213 2.329 10 10 0 0 0-.28-6.588c-.799-2.036-2.3-3.772-4.17-4.898z" fill="#422A9B"/><path d="M19.565 6.682a7.507 7.507 0 0 1 4.512 1.193 7.513 7.513 0 0 1 3.089 4.085 7.52 7.52 0 0 1-.139 4.83 7.534 7.534 0 0 1-3.609 4.053 7.5 7.5 0 0 1-9.316-2.05 7.493 7.493 0 0 1 .533-9.861 7.515 7.515 0 0 1 4.93-2.25z" fill="#5C41BE"/><path d="M7.596 18.775a2.779 2.779 0 0 1 1.829.311c.708.39 1.5.623 2.307.681.343.51.732.985 1.167 1.417a9.088 9.088 0 0 0-4.94 3.967 9.159 9.159 0 0 0-1.16 3.183c-.731-.033-1.53.127-2.194-.273-.626-.341-.952-1.022-1.127-1.683-.207-.727-.13-1.489-.143-2.234A5.502 5.502 0 0 1 4.41 20.82a5.319 5.319 0 0 1 3.186-2.044zM30.625 19.064a2.782 2.782 0 0 1 2.21-.18c1.74.5 3.148 1.961 3.624 3.704.259.858.205 1.761.208 2.645.002.74-.174 1.487-.549 2.128-.347.574-.995.95-1.666.968-.417.012-.834.001-1.25.005a9.102 9.102 0 0 0-3.007-5.393 9.123 9.123 0 0 0-3.093-1.757 9.335 9.335 0 0 0 1.167-1.416 5.727 5.727 0 0 0 2.356-.704z" fill="#422A9B"/><path d="M14.256 23.402a3.34 3.34 0 0 1 1.595.067c.534.146.987.478 1.503.668a7.13 7.13 0 0 0 6.038-.349 3.405 3.405 0 0 1 2.484-.358 6.585 6.585 0 0 1 3.837 2.713 6.622 6.622 0 0 1 1.118 3.7c-.014.936.082 1.895-.186 2.807-.22.754-.566 1.547-1.267 1.97-.53.347-1.183.405-1.8.381H12.657c-.388-.004-.779.02-1.162-.046a2.416 2.416 0 0 1-1.65-1.132 5.162 5.162 0 0 1-.678-2.653c.01-.963-.06-1.944.182-2.887.543-2.379 2.52-4.36 4.907-4.88z" fill="#5C41BE"/></svg>