<svg width="41" height="40" fill="none" xmlns="http://www.w3.org/2000/svg"><g clip-path="url(#a)"><path d="M20.474 40c11.045 0 20-8.954 20-20s-8.955-20-20-20c-11.046 0-20 8.954-20 20s8.954 20 20 20z" fill="url(#b)"/><path d="M8.797 19.826s10-4.104 13.468-5.549c1.33-.578 5.839-2.427 5.839-2.427s2.08-.81 1.907 1.156c-.058.809-.52 3.641-.982 6.705-.694 4.335-1.446 9.075-1.446 9.075s-.115 1.33-1.098 1.56c-.982.232-2.601-.808-2.89-1.04-.231-.173-4.335-2.774-5.838-4.046-.405-.347-.867-1.04.058-1.85 2.08-1.907 4.566-4.277 6.069-5.78.694-.694 1.387-2.312-1.503-.347-4.104 2.832-8.15 5.491-8.15 5.491s-.925.578-2.66.058c-1.733-.52-3.756-1.214-3.756-1.214s-1.388-.867.982-1.791z" fill="#fff"/></g><defs><linearGradient id="b" x1="26.56" y1="47.224" x2="-9.844" y2="32.612" gradientUnits="userSpaceOnUse"><stop stop-color="#5C41BE"/><stop offset="1" stop-color="#8067DC"/></linearGradient><clipPath id="a"><path fill="#fff" transform="translate(.474)" d="M0 0h40v40H0z"/></clipPath></defs></svg>