<svg width="65" height="66" fill="none" xmlns="http://www.w3.org/2000/svg"><rect y=".125" width="65" height="65" rx="32.5" fill="#5C41BE"/><path fill-rule="evenodd" clip-rule="evenodd" d="M44.324 34.309c.698 0 1.189.557 1.077 1.236 0 0 .082-.399-.002.01-1.165 5.71-6.254 10.008-12.355 10.008-6.963 0-12.607-5.597-12.607-12.5 0-6.904 5.644-12.5 12.607-12.5 6.094 0 11.179 4.288 12.352 9.988.085.415.006.03.006.03.103.682-.38 1.235-1.078 1.235H32.407c-.464 0-.573-.264-.242-.59l2.292-2.263c1.188-1.175-.595-2.938-1.783-1.763l-5.142 5.01a1.205 1.205 0 0 0 .006 1.747l5.136 4.968c1.188 1.175 2.971-.588 1.783-1.763l-2.292-2.264c-.33-.325-.22-.59.242-.59h11.917z" fill="#fff"/></svg>