<svg width="40" height="40" fill="none" xmlns="http://www.w3.org/2000/svg"><path d="M10.645 10.34a4.434 4.434 0 0 1 3.41-2.038c.395-.038.788.029 1.181.033 5.417-.003 10.833 0 16.25-.002.313-.005.624-.054.937-.04a4.417 4.417 0 0 1 4.285 4.438c-.083 1.275-.025 2.553-.042 3.83v11.565c.005.366.065.73.035 1.097a4.432 4.432 0 0 1-1.962 3.412c-.88.596-1.98.838-3.032.708-1.143-.023-2.286-.003-3.428-.01-7.131.006-14.26-.009-21.39.008.899-.093 1.773-.509 2.345-1.22.51-.61.778-1.404.766-2.197-.004-5.52.007-11.043-.007-16.564-.132-1.043.078-2.134.652-3.02zm5.392 3.43c-.726.099-1.224.922-.977 1.614.158.501.66.872 1.189.865 5.025.004 10.05-.002 15.076.003.353.008.736.005 1.033-.214.503-.323.707-1.025.44-1.563a1.255 1.255 0 0 0-1.157-.724c-4.948-.002-9.896 0-14.844 0-.254 0-.508-.014-.76.019zm12.05 6.672c-.616.109-1.077.734-.997 1.354.051.626.64 1.142 1.267 1.12 1.12 0 2.24.006 3.358-.003.658-.007 1.23-.615 1.2-1.27.001-.664-.603-1.253-1.268-1.226-1.186.014-2.376-.032-3.56.025zM15.89 20.9c-.395.139-.715.47-.84.87-.096.287-.047.594-.05.89v2.967c.005.338-.057.693.078 1.016.18.48.654.84 1.17.863 1.953-.009 3.908-.006 5.862-.002a1.352 1.352 0 0 0 1.154-.886c.122-.317.062-.663.068-.994.003-1.173-.005-2.345.007-3.518-.014-.656-.582-1.238-1.235-1.276-1.741.01-3.484.002-5.226.005-.33.006-.671-.054-.988.065zm12.19 4.544c-.76.13-1.229 1.045-.886 1.738a1.27 1.27 0 0 0 1.164.735c1.12 0 2.24.006 3.359-.003.658-.007 1.23-.619 1.198-1.276-.002-.661-.605-1.247-1.268-1.22-1.189.015-2.381-.034-3.568.026z" fill="#4847AD"/><path d="M5.576 15.19c.615-.234 1.28-.187 1.924-.19v13.203c0 .428.028.872-.134 1.278a2.086 2.086 0 0 1-1.899 1.35 2.088 2.088 0 0 1-1.95-1.226c-.16-.339-.193-.719-.185-1.088.006-3.41-.004-6.819.004-10.228.002-1.369.943-2.668 2.24-3.1z" fill="#5C41BE"/></svg>