<svg width="66" height="65" fill="none" xmlns="http://www.w3.org/2000/svg"><rect x=".5" width="65" height="65" rx="32.5" fill="#5C41BE"/><path d="M27.841 22.485a.366.366 0 0 0-.376.366v2.255a.365.365 0 0 0 .37.366H39.04a.37.37 0 0 0 .37-.366v-2.255a.37.37 0 0 0-.376-.366h-1.117l-1.493-1.493h-5.973l-1.493 1.493h-1.117z" fill="#fff"/><path fill-rule="evenodd" clip-rule="evenodd" d="M22.985 25.46c0-1.639 1.335-2.969 2.987-2.974v3.74c0 .419.34.74.761.74h13.41a.75.75 0 0 0 .76-.74v-3.74h-.008a2.987 2.987 0 0 1 2.995 2.975V41.91a2.984 2.984 0 0 1-2.995 2.974H25.98a2.986 2.986 0 0 1-2.996-2.974V25.46zm4.48 6.732c0 .4.334.747.747.747h10.452a.753.753 0 0 0 .746-.747c0-.4-.334-.747-.746-.747H28.21a.753.753 0 0 0-.746.747zm0 5.973c0 .4.334.746.747.746h10.452a.753.753 0 0 0 .746-.746c0-.4-.334-.747-.746-.747H28.21a.753.753 0 0 0-.746.747zm11.199-3.733H28.21a.747.747 0 0 0 0 1.493h10.453a.747.747 0 1 0 0-1.493z" fill="#fff"/></svg>