<svg width="41" height="40" fill="none" xmlns="http://www.w3.org/2000/svg"><rect x=".026" width="40" height="40" rx="10" fill="url(#a)"/><path d="M26.235 5.362H13.818a8.477 8.477 0 0 0-8.477 8.477v12.416a8.477 8.477 0 0 0 8.477 8.477h12.416a8.477 8.477 0 0 0 8.477-8.477V13.84a8.477 8.477 0 0 0-8.477-8.477zm5.772 21.112a5.627 5.627 0 0 1-5.627 5.627H13.673a5.627 5.627 0 0 1-5.627-5.627V13.768a5.627 5.627 0 0 1 5.627-5.627h12.706a5.627 5.627 0 0 1 5.627 5.627v12.706z" fill="#fff"/><path d="M20.027 12.5a7.62 7.62 0 1 0 0 15.242 7.62 7.62 0 0 0 0-15.242zm0 12.561a4.94 4.94 0 1 1 0-9.88 4.94 4.94 0 0 1 0 9.88zM27.901 13.985a1.775 1.775 0 1 0 0-3.55 1.775 1.775 0 0 0 0 3.55z" fill="#fff"/><defs><linearGradient id="a" x1="26.113" y1="47.224" x2="-10.292" y2="32.612" gradientUnits="userSpaceOnUse"><stop stop-color="#5C41BE"/><stop offset="1" stop-color="#8067DC"/></linearGradient></defs></svg>