<svg width="66" height="65" fill="none" xmlns="http://www.w3.org/2000/svg"><rect x=".75" width="65" height="65" rx="32.5" fill="#5C41BE"/><path fill-rule="evenodd" clip-rule="evenodd" d="M33.186 31.92a2.802 2.802 0 1 1 0-5.605 2.802 2.802 0 0 1 0 5.604zm13.965-2.15L35.067 20.28a2.934 2.934 0 0 0-3.633 0L19.35 29.77c-.496.39-.805.95-.872 1.577A2.3 2.3 0 0 0 19 33.072c.794.955 2.247 1.097 3.239.318l.578-.455v9.788a2.63 2.63 0 0 0 2.627 2.626h4.139a.606.606 0 0 0 .606-.606v-3.707c0-1.66 1.35-3.01 3.01-3.01 1.66 0 3.011 1.35 3.011 3.01v3.707c0 .335.272.606.606.606h4.241a2.63 2.63 0 0 0 2.626-2.626v-9.788l.58.455c.991.78 2.444.637 3.237-.318a2.298 2.298 0 0 0 .523-1.725 2.298 2.298 0 0 0-.872-1.577z" fill="#fff"/></svg>