<svg width="40" height="40" fill="none" xmlns="http://www.w3.org/2000/svg"><path d="M8.098 5.455a.794.794 0 0 1 .778-.765c2.846-.005 5.692-.001 8.538-.002a2.617 2.617 0 0 1 1.857.78c.355.36.726.705 1.064 1.08a2.62 2.62 0 0 1 .61 1.687c-.008.602.06 1.23-.176 1.802-.362.97-1.348 1.662-2.384 1.665-1.207.005-2.414.002-3.62.001a1.256 1.256 0 0 1-.958-.44c-.29-.359-.548-.742-.842-1.097-.49.55-1.005 1.078-1.504 1.62a.989.989 0 0 1-.973.313.96.96 0 0 1-.69-.638.979.979 0 0 1 .229-.982c.464-.495.93-.991 1.392-1.49-.845-.002-1.69.003-2.534-.002-.434.007-.811-.39-.79-.822 0-.903-.006-1.807.003-2.71zM27.655 8.385a.978.978 0 0 1 1.253-.459c1.064.444 2.132.883 3.195 1.33.47.181.733.756.552 1.228a79.65 79.65 0 0 1-.614 1.457c-.345-.227-.726-.386-1.105-.546-1.004-.419-2.008-.835-3.012-1.253a7.103 7.103 0 0 0-.886-.298c.206-.486.405-.976.617-1.459z" fill="#0094D2"/><path d="M23.194 12.711c.856-1.008 2.353-1.405 3.588-.917 1.22.499 2.43 1.022 3.648 1.528.308.129.614.271.883.473a3.246 3.246 0 0 1 1.29 2.196c.08.59-.02 1.197-.259 1.74-.232.543-.45 1.093-.694 1.63-2.206-.008-4.412 0-6.618-.003-.225-2.3-.825-4.568-1.838-6.647zM18.383 13.642a4.56 4.56 0 0 0 2.651-.88c1.134 2.025 1.804 4.293 2.048 6.596H10.608c.252-2.274.93-4.51 2.052-6.507a3.227 3.227 0 0 0 2.1.791c1.208.002 2.415.003 3.623 0z" fill="#422A9B"/><path d="M3.45 22.142c.073-.464.489-.854.967-.844h9.016v8.855c-.014.39.225.77.584.924.429.2.984.017 1.217-.394.217-.357.116-.792.139-1.186.647-.003 1.293-.001 1.939 0 .02.438-.093.945.224 1.308.36.466 1.139.465 1.495-.004.312-.363.202-.868.222-1.305.645-.002 1.292-.001 1.938 0 .02.44-.094.947.225 1.31.36.465 1.135.463 1.493-.004.312-.362.204-.867.222-1.304.645-.006 1.292-.002 1.938-.002.01.294-.02.59.021.881.092.52.659.893 1.172.754a.981.981 0 0 0 .747-.98V21.3c2.86-.002 5.718 0 8.577 0 .484-.01.903.39.963.862v.202c-.053.411-.368.778-.782.852-.338.047-.68.012-1.02.023-.809 3.767-1.61 7.536-2.42 11.302a.982.982 0 0 1-1.012.774c-7.566-.002-15.13.002-22.696-.002a.975.975 0 0 1-.946-.773c-.81-3.767-1.612-7.535-2.421-11.301-.385-.02-.783.052-1.157-.062-.34-.113-.572-.43-.645-.773v-.261z" fill="#5C41BE"/><path d="M15.37 21.3c3.233-.01 6.466-.002 9.7-.004v6.261c-3.233 0-6.465.002-9.697 0-.002-2.086.002-4.171-.003-6.257z" fill="#0094D2"/></svg>