<svg width="41" height="40" fill="none" xmlns="http://www.w3.org/2000/svg"><g clip-path="url(#a)"><path d="M20.474 0C9.496 0 .597 8.291.597 18.518c0 5.828 2.89 11.026 7.408 14.421V40l6.768-3.738c1.806.503 3.72.775 5.7.775 10.978 0 19.877-8.291 19.877-18.519C40.35 8.291 31.451 0 20.473 0zm1.976 24.938-5.063-5.432-9.877 5.432 10.864-11.605 5.186 5.432 9.753-5.432L22.45 24.938z" fill="url(#b)"/></g><defs><linearGradient id="b" x1="26.523" y1="47.224" x2="-9.72" y2="32.767" gradientUnits="userSpaceOnUse"><stop stop-color="#5C41BE"/><stop offset="1" stop-color="#8067DC"/></linearGradient><clipPath id="a"><path fill="#fff" transform="translate(.594)" d="M0 0h39.76v40H0z"/></clipPath></defs></svg>