<svg width="37" height="37" fill="none" xmlns="http://www.w3.org/2000/svg"><g clip-path="url(#a)"><path d="M18.247 36.5c9.941 0 18-8.059 18-18s-8.059-18-18-18-18 8.059-18 18 8.059 18 18 18z" fill="#32B9E6"/><path d="M7.739 18.343s9-3.693 12.121-4.994c1.197-.52 5.255-2.185 5.255-2.185s1.872-.728 1.716 1.04c-.052.729-.468 3.278-.884 6.035-.624 3.902-1.3 8.168-1.3 8.168s-.105 1.197-.99 1.405c-.884.208-2.34-.729-2.6-.937-.208-.156-3.902-2.497-5.255-3.642-.364-.312-.78-.936.052-1.664 1.873-1.717 4.11-3.85 5.463-5.203.624-.624 1.248-2.08-1.353-.312-3.693 2.55-7.335 4.943-7.335 4.943s-.832.52-2.393.052c-1.56-.469-3.382-1.093-3.382-1.093s-1.248-.78.885-1.613z" fill="#fff"/></g><defs><clipPath id="a"><path fill="#fff" transform="translate(.247 .5)" d="M0 0h36v36H0z"/></clipPath></defs></svg>