<svg xmlns="http://www.w3.org/2000/svg" width="18" height="18" fill="none">
  <g fill="#fff">
    <path d="M5.941 9.714V15.3l-3.184.684a1.02 1.02 0 0 1-1.234-.996v-7.8c0-.485.33-.896.806-.998l2.256-.483c.024 1.499.598 2.902 1.356 4.007ZM11.379 10.535v5.6c-.12 0-.242-.013-.357-.037l-4.187-.897a.913.913 0 0 0-.214-.023v-4.605c.833.92 1.747 1.485 2.379 1.485.619 0 1.54-.581 2.379-1.522ZM16.476 6.458v7.8c0 .485-.33.893-.805.999l-3.612.771V9.67c.73-1.067 1.291-2.406 1.352-3.813l1.832-.394a1.019 1.019 0 0 1 1.233.996Z"/>
    <path d="M9 1.864a3.742 3.742 0 0 0-3.738 3.738c0 3.153 2.714 5.777 3.738 5.777.916 0 3.738-2.6 3.738-5.777A3.742 3.742 0 0 0 9 1.864ZM9 6.96a1.36 1.36 0 1 1 0-2.719 1.36 1.36 0 0 1 0 2.719Z"/>
  </g>
</svg>
