<svg width="37" height="37" fill="none" xmlns="http://www.w3.org/2000/svg"><g clip-path="url(#a)"><mask id="b" style="mask-type:luminance" maskUnits="userSpaceOnUse" x="0" y="0" width="37" height="37"><path d="M36.247.5h-36v36h36V.5z" fill="#fff"/></mask><g mask="url(#b)"><path d="M17.508 36.5h1.5c8.137 0 12.206 0 14.734-2.527 2.527-2.527 2.505-6.595 2.505-14.713v-1.52c0-8.116 0-12.186-2.505-14.713C31.236.5 27.145.5 19.007.5h-1.499C9.37.5 5.301.5 2.774 3.027.247 5.554.247 9.621.247 17.74v1.52c0 8.118 0 12.186 2.527 14.713C5.301 36.5 9.37 36.5 17.508 36.5z" fill="#2787F5"/><path d="M19.565 26.455c-8.117 0-13.043-5.632-13.235-14.99h4.111c.128 6.874 3.256 9.792 5.654 10.387V11.465h3.941v5.931c2.313-.256 4.732-2.955 5.547-5.931h3.875c-.62 3.662-3.255 6.36-5.118 7.473 1.863.9 4.862 3.256 6.018 7.517h-4.261c-.9-2.848-3.106-5.054-6.061-5.354v5.354h-.47z" fill="#fff"/></g></g><defs><clipPath id="a"><path fill="#fff" transform="translate(.247 .5)" d="M0 0h36v36H0z"/></clipPath></defs></svg>