<svg width="37" height="37" fill="none" xmlns="http://www.w3.org/2000/svg"><g clip-path="url(#a)" fill-rule="evenodd" clip-rule="evenodd"><path d="M18.4.504a17.53 17.53 0 0 1 12.478 5.171 17.528 17.528 0 0 1 5.162 12.476c-.004 9.723-7.918 17.634-17.64 17.634h-.007a17.628 17.628 0 0 1-8.43-2.146L.613 36.09l2.502-9.138A17.601 17.601 0 0 1 .76 18.137C.764 8.414 8.677.504 18.4.504z" fill="#20B038"/><path d="M13.991 10.047c-.33-.734-.678-.748-.992-.761-.257-.011-.55-.01-.844-.01-.294 0-.772.11-1.176.55-.404.442-1.542 1.508-1.542 3.677 0 2.168 1.58 4.264 1.8 4.558.22.294 3.048 4.886 7.528 6.653 3.724 1.468 4.481 1.176 5.29 1.103.808-.074 2.607-1.066 2.974-2.096.368-1.029.368-1.91.258-2.095-.11-.184-.404-.294-.845-.514-.441-.22-2.608-1.287-3.012-1.434-.404-.147-.698-.22-.992.22-.294.442-1.138 1.434-1.395 1.728-.257.294-.514.331-.955.11-.441-.22-1.86-.685-3.545-2.187-1.31-1.168-2.194-2.61-2.452-3.052-.257-.44-.027-.68.194-.9.198-.197.44-.514.661-.771.22-.258.294-.441.44-.735.148-.294.074-.552-.036-.772-.11-.22-.967-2.4-1.359-3.272z" fill="#fff"/></g><defs><clipPath id="a"><path fill="#fff" transform="translate(.405 .5)" d="M0 0h35.842v36H0z"/></clipPath></defs></svg>