<svg width="37" height="37" fill="none" xmlns="http://www.w3.org/2000/svg"><rect x=".595" y=".5" width="36" height="36" rx="10" fill="url(#a)"/><path d="M24.182 5.326H13.007a7.63 7.63 0 0 0-7.63 7.63V24.13a7.63 7.63 0 0 0 7.63 7.63h11.175a7.63 7.63 0 0 0 7.63-7.63V12.956a7.63 7.63 0 0 0-7.63-7.63zm5.195 19.001a5.064 5.064 0 0 1-5.064 5.064H12.877a5.065 5.065 0 0 1-5.065-5.064V12.891a5.065 5.065 0 0 1 5.065-5.064h11.435a5.065 5.065 0 0 1 5.065 5.064v11.436z" fill="#fff"/><path d="M18.595 11.75a6.859 6.859 0 1 0 0 13.717 6.859 6.859 0 0 0 0-13.717zm0 11.305a4.446 4.446 0 1 1 0-8.892 4.446 4.446 0 0 1 0 8.892zM25.682 13.086a1.598 1.598 0 1 0 0-3.195 1.598 1.598 0 0 0 0 3.195z" fill="#fff"/><defs><linearGradient id="a" x1="18.595" y1="-4.17" x2="34.006" y2="25.618" gradientUnits="userSpaceOnUse"><stop stop-color="#384AEE"/><stop offset=".205" stop-color="#A839D1"/><stop offset=".48" stop-color="#E63190"/><stop offset=".74" stop-color="#F13E54"/><stop offset="1" stop-color="#EFC766"/></linearGradient></defs></svg>