<svg xmlns="http://www.w3.org/2000/svg" width="18" height="18" fill="none">
  <g fill="#fff">
    <path d="M5.126 1.764c-.15 0-.26.114-.26.253v1.561a.253.253 0 0 0 .256.254h7.757a.257.257 0 0 0 .256-.254v-1.56a.256.256 0 0 0-.26-.254H12.1L11.069.73H6.933L5.899 1.764h-.773Z"/>
    <path fill-rule="evenodd" d="M1.764 3.891c0-1.135.924-2.056 2.067-2.059v2.59c0 .29.236.511.527.511h9.284a.52.52 0 0 0 .527-.511v-2.59h-.007a2.067 2.067 0 0 1 2.074 2.06v11.387c0 1.137-.927 2.06-2.074 2.06H3.838a2.067 2.067 0 0 1-2.073-2.06V3.891Zm3.1 4.66c0 .277.232.517.518.517h7.236c.28 0 .517-.231.517-.517a.522.522 0 0 0-.517-.516H5.382a.521.521 0 0 0-.517.516Zm0 4.136c0 .277.232.516.518.516h7.236c.28 0 .517-.231.517-.516a.522.522 0 0 0-.517-.517H5.382a.521.521 0 0 0-.517.517Zm7.754-2.585H5.382a.517.517 0 1 0 0 1.034h7.236a.517.517 0 1 0 0-1.034Z" clip-rule="evenodd"/>
  </g>
</svg>
