<svg xmlns="http://www.w3.org/2000/svg" width="18" height="18" fill="none">
  <g fill="#fff" fill-rule="evenodd" clip-rule="evenodd">
    <path d="M16.6 9.269H1.4v5.55a1.419 1.419 0 0 0 1.416 1.417h12.367a1.417 1.417 0 0 0 1.417-1.417v-5.55Zm-4.442 4.699a1.405 1.405 0 1 0 0-1.934 1.405 1.405 0 1 0-1.018 2.371 1.4 1.4 0 0 0 1.018-.437Zm-8.733.178h3.51a.387.387 0 0 0 0-.773h-3.51a.387.387 0 0 0 0 .773Zm7.715-1.777a.632.632 0 1 1 0 1.264.632.632 0 0 1 0-1.263Zm2.036 0a.632.632 0 1 1-.001 1.264.632.632 0 0 1 0-1.263Zm-9.75.267h1.572a.387.387 0 0 0 0-.773H3.425a.387.387 0 0 0 0 .773Zm-2.027-4.14H16.6v-1.37a1.418 1.418 0 0 0-1.417-1.417H2.816A1.42 1.42 0 0 0 1.4 7.126v1.37ZM14.563 5.194h-3.65l3.201-1.36.45 1.36Zm-10.314 0h4.686l4.936-2.096-.12-.36a1.417 1.417 0 0 0-1.91-.854l-7.592 3.31Z"/>
  </g>
</svg>
