<svg width="34" height="37" fill="none" xmlns="http://www.w3.org/2000/svg"><g clip-path="url(#a)"><path d="M30.806 20.679c-.887 7.316-6.114 7.779-7.077 8.095-.41.134-4.223 1.105-9.015.784l-5.195 5.756-.006-6.634-.04-.01c-6.979-1.985-6.744-9.425-6.666-13.33.079-3.904.795-7.104 2.925-9.256 3.823-3.546 11.702-3.016 11.702-3.016 6.653.03 9.842 2.08 10.581 2.767 2.454 2.153 3.705 7.3 2.79 14.843m-.974-16.67C28.956 3.187 25.425.562 17.56.527c0 0-9.274-.573-13.796 3.674C1.247 6.777.362 10.547.267 15.223.175 19.899.053 28.66 8.303 31.037l.007.002-.004 3.625s-.052 1.468.89 1.767c1.142.363 1.812-.753 2.903-1.955.6-.66 1.424-1.63 2.047-2.37 5.642.483 9.982-.626 10.474-.79 1.14-.379 7.587-1.224 8.635-9.984C34.337 12.3 32.731 6.587 29.83 4.01" fill="url(#b)"/><path d="M24.798 21.77s-1.058-.902-1.573-1.29a20.233 20.233 0 0 0-1.694-1.107c-.777-.443-1.57-.165-1.899.27l-.68.877c-.35.444-.887.369-1.028.34-1.006-.252-2.076-.881-3.17-1.941-1.108-1.07-1.778-2.188-2.017-3.349l-.017-.077c-.065-.476.015-.697.21-1.023l.036-.03c.46-.428 1.312-.948 1.427-1.443.335-.861-1.12-2.656-1.328-2.973 0 0-1.058-1.4-1.433-1.667-.407-.338-1.036-.53-1.67-.14l-.033.023c-1.822 1.234-2.483 1.943-2.303 3l.094.426c.925 2.915 2.71 6.021 5.372 8.788 2.633 2.731 5.481 4.368 8.288 5.502.73.242 1.486.033 2.261-.63l.013-.01a7.232 7.232 0 0 0 1.417-1.787l.004-.013c.341-.673.226-1.31-.277-1.745" fill="url(#c)"/><path d="M20.428 15.388a.212.212 0 0 1-.21-.204c-.036-.755-.24-1.334-.605-1.72-.363-.384-.908-.598-1.617-.637a.214.214 0 0 1-.198-.226.212.212 0 0 1 .221-.204c.819.045 1.456.303 1.895.768.438.463.68 1.135.723 1.997a.213.213 0 0 1-.2.225h-.01" fill="url(#d)"/><path d="M22.505 16.102H22.5a.214.214 0 0 1-.205-.22c.032-1.45-.39-2.676-1.259-3.646a4.593 4.593 0 0 0-1.561-1.136c-.606-.27-1.311-.438-2.095-.497a.214.214 0 0 1-.194-.23.21.21 0 0 1 .224-.198c1.674.126 2.999.721 3.937 1.772.943 1.052 1.403 2.38 1.37 3.945a.214.214 0 0 1-.21.21" fill="url(#e)"/><path d="M24.632 16.953a.213.213 0 0 1-.21-.212c-.01-1.282-.203-2.442-.575-3.448a7.218 7.218 0 0 0-1.662-2.609 7.501 7.501 0 0 0-2.479-1.66c-.914-.37-1.931-.561-3.026-.57a.213.213 0 0 1-.208-.216c0-.118.095-.213.21-.213 2.299.018 4.247.808 5.796 2.352a7.604 7.604 0 0 1 1.761 2.765c.39 1.052.593 2.263.603 3.596a.213.213 0 0 1-.208.216h-.002z" fill="url(#f)"/></g><defs><linearGradient id="b" x1="21.995" y1="43.002" x2="-8.965" y2="31.492" gradientUnits="userSpaceOnUse"><stop stop-color="#5C41BE"/><stop offset="1" stop-color="#8067DC"/></linearGradient><linearGradient id="c" x1="19.123" y1="29.314" x2="2.945" y2="22.957" gradientUnits="userSpaceOnUse"><stop stop-color="#5C41BE"/><stop offset="1" stop-color="#8067DC"/></linearGradient><linearGradient id="d" x1="19.649" y1="15.928" x2="17.029" y2="14.93" gradientUnits="userSpaceOnUse"><stop stop-color="#5C41BE"/><stop offset="1" stop-color="#8067DC"/></linearGradient><linearGradient id="e" x1="20.794" y1="17.173" x2="15.667" y2="15.252" gradientUnits="userSpaceOnUse"><stop stop-color="#5C41BE"/><stop offset="1" stop-color="#8067DC"/></linearGradient><linearGradient id="f" x1="21.931" y1="18.567" x2="14.182" y2="15.651" gradientUnits="userSpaceOnUse"><stop stop-color="#5C41BE"/><stop offset="1" stop-color="#8067DC"/></linearGradient><clipPath id="a"><path fill="#fff" transform="translate(.247 .5)" d="M0 0h33.348v36H0z"/></clipPath></defs></svg>