<svg width="42" height="40" fill="none" xmlns="http://www.w3.org/2000/svg"><path d="M36.959 26.63c-.174-3.941-3.945-2.525-3.945-2.525-.041.008-.09-.01-.102-.05-.931-3.165-4.593-1.365-4.593-1.365l-5.452 3.154c.368.035.76.066 1.177.094.254.017.496.043.726.075.716.1 1.316.27 1.797.513.62.311 1.042.74 1.266 1.282.084.206.167.497.159.854-.008.518-.2 1.172-.835 1.896a4.625 4.625 0 0 1-.117.129c-.67.713-1.648 1.347-2.827 1.831-1.451.595-3.209.962-5.077.962a14 14 0 0 1-3.622-.472l-.73-.195a.097.097 0 0 1-.071-.094v-.957c0-.067.066-.114.13-.091 8.558 3.005 16.564-4.151 9.128-4.654-7.459-.504-7.815-2.169-7.83-2.39a.096.096 0 0 0-.015-.047c-4.467-6.907-14.758.596-15.68 1.289a.097.097 0 0 0-.026.123l.41.761 4.631 8.603.714 1.328a.096.096 0 0 0 .116.046c.612-.232 1.173-.648 1.692-1.066 1.207-.97 2.379-.923 3.709-.188 2.309 1.277 4.694 2.411 7.02 3.658.51.273 1.013.492 1.512.653l.01.003c1.92.429 3.607.138 4.868-.302 1.432-.498 2.316-1.186 2.371-1.23l.006-.004 12.317-8.103c.579-.402.999-.797 1.286-1.172.788-1.032.582-1.93-.071-2.505-.947-.838-2.834-.999-3.982.087" fill="#422A9B"/><path d="m21 16.919 1.777.935c3.492 1.835 5.782.169 5.116-3.717l-.34-1.98 1.438-1.401c2.826-2.754 1.948-5.447-1.953-6.014l-1.988-.289-.889-1.8c-1.746-3.538-4.578-3.536-6.323 0l-.889 1.8-1.987.29c-3.904.567-4.777 3.26-1.954 6.013l1.438 1.402-.34 1.98c-.666 3.888 1.626 5.55 5.116 3.716L21 16.919z" fill="#0094D2"/></svg>