<svg xmlns="http://www.w3.org/2000/svg" width="31" height="30" fill="none">
  <path fill="#0094D2" d="M28.942 19.499v6.559a3.068 3.068 0 0 1-3.069 3.068H5.127a3.068 3.068 0 0 1-3.068-3.068V13.584a3.068 3.068 0 0 1 3.068-3.068h5.676a3.068 3.068 0 0 1 3.068 3.068v2.853h12.01a3.068 3.068 0 0 1 3.062 3.062Z"/>
  <path fill="#fff" fill-rule="evenodd" d="M25.455 4.644V15h-9.624v-1.15A4.773 4.773 0 0 0 11.06 9.08H6.078V4.647a3.505 3.505 0 0 1 3.501-3.504h12.375a3.505 3.505 0 0 1 3.501 3.5Zm-2.437 7.37a.853.853 0 0 0-.852-.852H17.86a.852.852 0 0 0 0 1.705h4.306a.853.853 0 0 0 .852-.853Zm-.25-4.352a.852.852 0 0 1-.602 1.455H17.86a.852.852 0 0 1 0-1.705h4.306c.226 0 .442.09.602.25Zm.25-3.148a.852.852 0 0 0-.852-.852H11.414a.852.852 0 1 0 0 1.705h10.752a.852.852 0 0 0 .852-.853Z" clip-rule="evenodd"/>
</svg>
