<svg width="22" height="21" fill="none" xmlns="http://www.w3.org/2000/svg"><g fill="#fff"><path d="m2.618 3.782 8.036 6.428.025.024c.198.167.47.167.643 0l.025-.024 8.035-6.428c.025-.024.05-.024.074-.048-.618-.357-1.335-.595-2.101-.595H4.62c-.766 0-1.483.214-2.101.595a.19.19 0 0 1 .098.048z"/><path d="M20.816 5.068a.567.567 0 0 1-.173.167l-8.01 6.429c-.47.38-1.04.595-1.633.595s-1.162-.19-1.632-.595l-8.01-6.429c-.075-.048-.124-.119-.174-.167A3.712 3.712 0 0 0 .665 6.95v7.857c0 2.096 1.78 3.81 3.956 3.81H17.38c2.176 0 3.956-1.714 3.956-3.81V6.95c0-.69-.197-1.333-.519-1.88z"/></g></svg>