<svg width="66" height="65" fill="none" xmlns="http://www.w3.org/2000/svg"><rect x=".75" width="65" height="65" rx="32.5" fill="#5C41BE"/><path fill-rule="evenodd" clip-rule="evenodd" d="M46.355 33.386H21.021v9.25a2.364 2.364 0 0 0 2.361 2.361h20.611a2.362 2.362 0 0 0 2.362-2.361v-9.25zm-7.404 7.832a2.341 2.341 0 1 0 1.696-3.952c-.667 0-1.269.28-1.696.729a2.333 2.333 0 0 0-1.696-.73 2.341 2.341 0 1 0 1.696 3.952zm-14.554.296h5.85a.644.644 0 0 0 0-1.288h-5.85a.644.644 0 0 0 0 1.288zm12.858-2.96a1.053 1.053 0 1 1-.001 2.106 1.053 1.053 0 0 1 .001-2.106zm3.392 0a1.053 1.053 0 1 1-.001 2.105 1.053 1.053 0 0 1 .001-2.105zm-16.25.444h2.62a.644.644 0 0 0 0-1.288h-2.62a.644.644 0 0 0 0 1.288zm-3.377-6.9h25.335v-2.283a2.364 2.364 0 0 0-2.362-2.362h-20.61a2.364 2.364 0 0 0-2.362 2.362v2.282zM42.96 26.593h-6.085l5.336-2.267.749 2.267zm-17.19 0h7.81l8.226-3.494-.199-.6a2.362 2.362 0 0 0-3.186-1.423L25.77 26.593z" fill="#fff"/></svg>