<svg width="40" height="40" fill="none" xmlns="http://www.w3.org/2000/svg"><path d="M34.268 32.926a2.602 2.602 0 0 0 2.599-2.598V8.55h-5.402A3.469 3.469 0 0 1 28 5.086V.67H14.598a2.602 2.602 0 0 0-2.599 2.599V5.34h7.737c.221 0 .434.085.595.237l8.637 8.165a.866.866 0 0 1 .272.63v18.553h5.028z" fill="#422A9B"/><path d="M22.105 13.716h4.312l-6.044-5.714v3.981c0 .955.777 1.733 1.732 1.733z" fill="#005173"/><path d="M29.732 5.088c0 .955.778 1.732 1.733 1.732h3.755l-5.488-5.091v3.359z" fill="#33236E"/><path d="M3.133 21.899v14.833A2.602 2.602 0 0 0 5.73 39.33H24.91a2.602 2.602 0 0 0 2.599-2.6V15.449h-5.402a3.469 3.469 0 0 1-3.465-3.465V7.074H5.731a2.602 2.602 0 0 0-2.598 2.599v12.226z" fill="#0094D2"/></svg>