<svg width="40" height="40" fill="none" xmlns="http://www.w3.org/2000/svg"><path d="M37.5 7.928v18.628c0 3.029-3.085 5.3-5.971 4.443-3.357-1-7.057-.814-10.286.543-.8.329-1.7.329-2.486 0-3.242-1.357-6.914-1.529-10.285-.543C5.6 31.842 2.5 29.528 2.5 26.556V7.928a3.935 3.935 0 0 0-2.143 3.5v18.571c0 2.157 1.758 3.914 3.929 3.929h9.971c.343 0 .643.243.715.571a2.872 2.872 0 0 0 2.8 2.286h4.457a2.9 2.9 0 0 0 2.814-2.286.707.707 0 0 1 .7-.571h9.972c2.171-.015 3.928-1.772 3.928-3.929V11.428a3.935 3.935 0 0 0-2.143-3.5z" fill="#422A9B"/><path d="m27.737 10.06 1.192.794V3.307a19.72 19.72 0 0 0-3.572-.003v7.55l1.192-.794a1.088 1.088 0 0 1 1.188 0z" fill="#FFC053"/><path d="M32.141 28.944c1.58.467 3.216-.733 3.216-2.385V7.207a3.224 3.224 0 0 0-2.268-3.08c-.665-.211-1.34-.372-2.018-.51v9.24c0 .833-.967 1.356-1.666.89l-2.262-1.508-2.263 1.508c-.71.474-1.666-.1-1.666-.891V3.604c-.724.147-1.437.35-2.143.578v25.136a17.6 17.6 0 0 1 11.07-.374zM7.86 28.944a17.603 17.603 0 0 1 11.07.374V4.182A19.71 19.71 0 0 0 6.91 4.127a3.223 3.223 0 0 0-2.267 3.08V26.56c0 1.635 1.66 2.842 3.215 2.385zM9.832 8.941c2.007-.32 4.043-.32 6.05 0 .585.092.983.642.89 1.226-.091.576-.65.982-1.226.89a17.046 17.046 0 0 0-5.378 0 1.072 1.072 0 0 1-.336-2.116zm0 5.714c2.007-.32 4.043-.32 6.05 0 .585.093.983.642.89 1.226-.091.576-.65.982-1.226.89a17.046 17.046 0 0 0-5.378 0 1.072 1.072 0 0 1-.336-2.116zm0 5.714c2.007-.32 4.043-.32 6.05 0 .585.093.983.643.89 1.226-.091.577-.65.983-1.226.89a17.046 17.046 0 0 0-5.378 0 1.072 1.072 0 0 1-.336-2.116z" fill="#0094D2"/></svg>