<svg width="40" height="40" fill="none" xmlns="http://www.w3.org/2000/svg"><path fill-rule="evenodd" clip-rule="evenodd" d="M37.075 20.603H2.924v12.47a3.185 3.185 0 0 0 3.184 3.184l27.784-.001a3.185 3.185 0 0 0 3.183-3.184v-12.47zm-9.98 10.558a3.145 3.145 0 0 0 2.287.983 3.156 3.156 0 0 0 0-6.31c-.9 0-1.712.377-2.287.982a3.145 3.145 0 0 0-2.286-.983 3.156 3.156 0 0 0 0 6.31c.9 0 1.71-.377 2.286-.982zm-19.62.4h7.886a.869.869 0 0 0 0-1.737H7.476a.869.869 0 0 0 0 1.736zm0-3.393h3.533a.869.869 0 0 0 0-1.736H7.476a.869.869 0 0 0 0 1.736zm-4.551-9.302h34.151V15.79c0-.845-.335-1.654-.931-2.252a3.19 3.19 0 0 0-2.252-.932H6.107a3.19 3.19 0 0 0-2.251.932 3.187 3.187 0 0 0-.932 2.252v3.077z" fill="#0094D2"/><path d="M30.8 28.989a1.42 1.42 0 1 0-2.838 0 1.42 1.42 0 0 0 2.838 0z" fill="#FFC053"/><path d="M26.227 28.989a1.42 1.42 0 1 0-2.839 0 1.42 1.42 0 0 0 2.839 0z" fill="#C00006"/><path fill-rule="evenodd" clip-rule="evenodd" d="M32.5 11.447h-8.204l7.194-3.056 1.01 3.056zm-23.174 0h10.53l11.088-4.71-.268-.808a3.184 3.184 0 0 0-4.295-1.92L9.326 11.447z" fill="#33236E"/></svg>