<svg xmlns="http://www.w3.org/2000/svg" width="28" height="41" fill="none">
  <path fill="url(#a)" d="M20.843 8.723V21.25a.69.69 0 1 1-1.383 0V8.722c0-3.547-2.87-6.433-6.396-6.433S6.67 5.176 6.67 8.723v2.408c0 .384-.31.696-.692.696a.694.694 0 0 1-.692-.696V8.723c0-4.315 3.49-7.825 7.78-7.825 4.289 0 7.778 3.51 7.778 7.825Z"/>
  <path fill="url(#b)" d="M6.522 10.661h-1.09v28.571h1.09v-28.57Z"/>
  <path fill="#33236E" d="M6.522 10.661h-.37v28.571h.37v-28.57Z"/>
  <path fill="#422A9B" d="M5.803 10.661h-.371v28.571h.37v-28.57ZM6.724 21.813v1.178c0 .19-.153.345-.342.345h-.328a.345.345 0 0 0 .343-.345v-1.178a.345.345 0 0 0-.343-.345h.328c.189 0 .342.154.342.345Z"/>
  <path fill="#765FCB" d="M6.396 21.813v1.178c0 .19-.154.345-.343.345h-.48a.344.344 0 0 1-.343-.345v-1.178c0-.19.154-.345.343-.345h.48c.189 0 .343.154.343.345ZM9.99 39.756v.523H1.963v-.523c0-.223.052-.435.145-.623.228-.468.706-.79 1.26-.79h5.22c.553 0 1.031.322 1.26.79.093.188.145.4.145.623h-.001Z"/>
  <path fill="url(#c)" d="M9.99 39.756v.523H1.963v-.523c0-.223.052-.436.145-.623h7.74c.093.187.144.4.144.623Z"/>
  <path fill="url(#d)" d="M11.954 40.279a.619.619 0 0 1-.616.619H.616A.617.617 0 0 1 .18 39.84a.612.612 0 0 1 .435-.182h10.722a.615.615 0 0 1 .615.62Z"/>
  <path fill="#765FCB" d="M11.928 40.105a.62.62 0 0 1-.59.444H.616a.616.616 0 0 1-.592-.444.616.616 0 0 1 .592-.446h10.721c.28 0 .517.188.591.446ZM5.23 22.991v-1.178c0-.19.154-.345.343-.345h.328a.345.345 0 0 0-.343.345v1.178c0 .19.154.345.343.345h-.328a.344.344 0 0 1-.343-.345Z"/>
  <path fill="#33236E" d="M19.825 8.597v13.266a.698.698 0 0 1-.365-.613V8.723c0-3.547-2.869-6.433-6.395-6.433-3.527 0-6.396 2.886-6.396 6.433v1.57l-.298-.26V8.598c0-3.738 3.011-6.767 6.727-6.767 1.857 0 3.539.758 4.756 1.982a6.767 6.767 0 0 1 1.97 4.785Z"/>
  <path fill="#422A9B" d="M20.843 8.723V21.25a.698.698 0 0 1-.13.407l-.34.021V8.571c0-2.03-.817-3.867-2.14-5.197a7.26 7.26 0 0 0-5.166-2.153c-4.035 0-7.307 3.291-7.307 7.35v1.522l-.475.25v-1.62c0-4.315 3.49-7.825 7.78-7.825 4.289 0 7.778 3.51 7.778 7.825Z"/>
  <path fill="#422A9B" d="M6.956 10.623v1.168a.587.587 0 0 1-.585.589h-.434a.587.587 0 0 0 .585-.59v-1.167a.587.587 0 0 0-.585-.59h.434c.323 0 .585.264.585.59Z"/>
  <path fill="#765FCB" d="M5.936 10.034h-.354a.587.587 0 0 0-.585.588v1.169c0 .325.262.589.585.589h.354a.587.587 0 0 0 .585-.59v-1.167a.587.587 0 0 0-.585-.59Z"/>
  <path fill="#765FCB" d="M4.997 11.79v-1.168c0-.326.262-.589.585-.589h.435a.587.587 0 0 0-.586.589v1.168c0 .325.263.59.586.59h-.435a.587.587 0 0 1-.585-.59Z"/>
  <path fill="url(#e)" d="M25.543 28.329v12.57H14.76v-12.57a5.418 5.418 0 0 1 3.985-5.236 5.34 5.34 0 0 1 1.405-.187 5.36 5.36 0 0 1 3.813 1.588 5.422 5.422 0 0 1 1.579 3.835Z"/>
  <path fill="#5C41BE" d="M14.76 32.889v8.009a1.522 1.522 0 0 1-1.086-.452 1.544 1.544 0 0 1-.45-1.092v-4.922c0-.668.424-1.238 1.015-1.452a1.52 1.52 0 0 1 .52-.091ZM27.077 34.432v4.922a1.547 1.547 0 0 1-1.013 1.453 1.52 1.52 0 0 1-.521.09V32.89c.183 0 .358.032.52.09a1.544 1.544 0 0 1 1.014 1.453Z"/>
  <path fill="#33236E" d="M23.837 31.783v.294a2.243 2.243 0 0 1-2.236 2.25h-.798a2.243 2.243 0 0 0 2.236-2.25v-.294a.603.603 0 0 0-.6-.604h.797c.331 0 .6.27.6.604Z"/>
  <path fill="url(#f)" d="M23.04 31.783v.294a2.243 2.243 0 0 1-2.238 2.25h-2.1a2.243 2.243 0 0 1-2.235-2.25v-.294c0-.333.268-.604.6-.604h5.372c.33 0 .6.27.6.604Z"/>
  <path fill="#765FCB" d="M20.553 33.729c.536-.224.79-.841.568-1.38a1.048 1.048 0 0 0-1.372-.572c-.535.223-.79.841-.568 1.38.222.54.836.795 1.372.572Z"/>
  <path fill="#33236E" d="M20.151 28.877c.776 0 1.404-.632 1.404-1.412 0-.78-.628-1.412-1.404-1.412-.775 0-1.403.633-1.403 1.412 0 .78.628 1.412 1.403 1.412Z"/>
  <path fill="#422A9B" d="M20.302 28.562a1.104 1.104 0 0 1-1.167-1.522v-5.936c0-.202.163-.366.364-.366h.303c-.2 0-.363.164-.363.366v5.936a1.107 1.107 0 0 0 .865 1.522h-.002Z"/>
  <path fill="#765FCB" d="M21.252 27.466c0 .559-.412 1.022-.949 1.097a1.106 1.106 0 0 1-.864-1.522v-5.936c0-.203.163-.366.363-.366h1.003c.2 0 .363.163.363.366v5.936c.054.131.084.274.084.425Z"/>
  <path fill="#422A9B" d="M20 28.562a1.104 1.104 0 0 0 1.167-1.522v-5.936a.364.364 0 0 0-.364-.366h-.304c.2 0 .364.164.364.366v5.936a1.107 1.107 0 0 1-.865 1.522h.001ZM18.746 23.092c-.097.047-3.204 1.567-3.204 5.98v11.826h-.781v-12.57a5.418 5.418 0 0 1 3.985-5.236ZM21.558 23.092c.096.047 3.204 1.567 3.204 5.98v11.826h.781v-12.57a5.418 5.418 0 0 0-3.985-5.236Z"/>
  <path fill="#33236E" d="M14.76 32.889v8.009c-.182 0-.358-.032-.52-.091V32.98a1.52 1.52 0 0 1 .52-.091ZM26.064 32.98v7.827a1.52 1.52 0 0 1-.521.09V32.89c.183 0 .358.032.52.09Z"/>
  <path fill="url(#g)" d="M16.466 40.898c-1.03-6.684 8.404-6.679 7.37 0-.05-.576-.023-1.161-.128-1.728-.304-1.678-1.86-2.986-3.556-2.96-1.695-.03-3.252 1.283-3.556 2.96-.106.568-.079 1.153-.129 1.728Z"/>
  <path fill="#33236E" d="M20.532 32.169h-.761a.116.116 0 0 1-.116-.117c0-.064.052-.116.116-.116h.761a.116.116 0 0 1 0 .233ZM20.702 32.52h-1.101a.116.116 0 0 1-.116-.116c0-.064.052-.116.116-.116h1.101a.116.116 0 0 1 0 .233ZM20.702 33.225h-1.101a.116.116 0 0 1-.116-.117c0-.064.052-.116.116-.116h1.101a.116.116 0 0 1 0 .233ZM20.872 32.872H19.43a.116.116 0 0 1-.116-.116c0-.064.052-.117.116-.117h1.442c.063 0 .115.053.115.117a.116.116 0 0 1-.115.116ZM19.771 33.343h.761c.064 0 .116.053.116.117a.116.116 0 0 1-.116.116h-.761a.116.116 0 0 1-.116-.116c0-.064.052-.117.116-.117ZM16.466 31.783v.294a2.243 2.243 0 0 0 2.236 2.25h.798a2.243 2.243 0 0 1-2.237-2.25v-.294c0-.333.27-.604.6-.604h-.797c-.33 0-.6.27-.6.604Z"/>
  <defs>
    <linearGradient id="a" x1="15.432" x2=".321" y1="25.747" y2="21.264" gradientUnits="userSpaceOnUse">
      <stop stop-color="#5C41BE"/>
      <stop offset="1" stop-color="#8067DC"/>
    </linearGradient>
    <linearGradient id="b" x1="6.143" x2="4.991" y1="44.392" y2="44.374" gradientUnits="userSpaceOnUse">
      <stop stop-color="#5C41BE"/>
      <stop offset="1" stop-color="#8067DC"/>
    </linearGradient>
    <linearGradient id="c" x1="7.199" x2="6.246" y1="40.486" y2="37.807" gradientUnits="userSpaceOnUse">
      <stop stop-color="#5C41BE"/>
      <stop offset="1" stop-color="#8067DC"/>
    </linearGradient>
    <linearGradient id="d" x1="7.796" x2="7.007" y1="41.121" y2="38.065" gradientUnits="userSpaceOnUse">
      <stop stop-color="#5C41BE"/>
      <stop offset="1" stop-color="#8067DC"/>
    </linearGradient>
    <linearGradient id="e" x1="21.792" x2="11.021" y1="44.148" y2="41.557" gradientUnits="userSpaceOnUse">
      <stop stop-color="#5C41BE"/>
      <stop offset="1" stop-color="#8067DC"/>
    </linearGradient>
    <linearGradient id="f" x1="20.753" x2="16.673" y1="34.895" y2="31.476" gradientUnits="userSpaceOnUse">
      <stop stop-color="#5C41BE"/>
      <stop offset="1" stop-color="#8067DC"/>
    </linearGradient>
    <linearGradient id="g" x1="21.297" x2="15.463" y1="41.803" y2="38.286" gradientUnits="userSpaceOnUse">
      <stop stop-color="#5C41BE"/>
      <stop offset="1" stop-color="#8067DC"/>
    </linearGradient>
  </defs>
</svg>
