<svg width="30" height="31" fill="none" xmlns="http://www.w3.org/2000/svg"><path d="M18.148 4.744a.57.57 0 0 0-.825 0 .57.57 0 0 0 0 .826l.849.848H5.792l.85-.848a.57.57 0 0 0 0-.826.57.57 0 0 0-.826 0l-1.84 1.84a.57.57 0 0 0 0 .825l1.84 1.839c.118.118.26.165.4.165.142 0 .307-.047.402-.165a.57.57 0 0 0 0-.825l-.85-.85h12.404l-.85.85a.57.57 0 0 0 0 .825c.119.118.26.165.402.165.14 0 .306-.047.4-.165l1.84-1.84a.57.57 0 0 0 0-.825l-1.816-1.839z" fill="url(#a)"/><path d="m25.222 24.126-.85.85v-12.38l.85.849c.117.118.259.165.4.165.142 0 .307-.047.401-.165a.57.57 0 0 0 0-.826l-1.839-1.839a.614.614 0 0 0-.825 0l-1.84 1.84a.57.57 0 0 0 0 .825.57.57 0 0 0 .826 0l.849-.85V25l-.85-.85a.57.57 0 0 0-.824 0 .57.57 0 0 0 0 .826l1.839 1.84c.118.117.26.164.4.164.142 0 .307-.047.401-.165L26 24.975a.57.57 0 0 0 0-.825c-.189-.236-.543-.236-.778-.024z" fill="url(#b)"/><path d="M19.28 10.922H4.708c-.33 0-.59.26-.59.59v14.595c0 .33.26.59.59.59h14.595c.33 0 .59-.26.59-.59V11.512a.62.62 0 0 0-.613-.59z" fill="url(#c)"/><defs><linearGradient id="a" x1="14.457" y1="10.288" x2="8.36" y2="2.035" gradientUnits="userSpaceOnUse"><stop stop-color="#5C41BE"/><stop offset="1" stop-color="#8067DC"/></linearGradient><linearGradient id="b" x1="24.511" y1="29.934" x2="19.45" y2="29.331" gradientUnits="userSpaceOnUse"><stop stop-color="#5C41BE"/><stop offset="1" stop-color="#8067DC"/></linearGradient><linearGradient id="c" x1="14.406" y1="29.546" x2=".049" y2="23.783" gradientUnits="userSpaceOnUse"><stop stop-color="#5C41BE"/><stop offset="1" stop-color="#8067DC"/></linearGradient></defs></svg>