<svg xmlns="http://www.w3.org/2000/svg" width="25" height="26" fill="none"><g fill="#765FCB"><path d="M16.013 1.103a.636.636 0 0 0-.92 0 .636.636 0 0 0 0 .92l.947.948H2.223l.947-.947a.636.636 0 0 0 0-.921.636.636 0 0 0-.921 0L.197 3.156a.636.636 0 0 0 0 .92L2.25 6.13c.132.132.29.184.447.184.158 0 .342-.052.448-.184a.636.636 0 0 0 0-.92l-.948-.948H16.04l-.948.947a.636.636 0 0 0 0 .921c.132.132.29.184.447.184.158 0 .343-.052.448-.184l2.053-2.052a.636.636 0 0 0 0-.921l-2.027-2.053ZM23.908 22.734l-.947.948V9.866l.947.947c.132.132.29.184.447.184.158 0 .343-.052.448-.184a.636.636 0 0 0 0-.92L22.75 7.84c-.237-.237-.684-.237-.92 0l-2.053 2.052a.636.636 0 0 0 0 .921.636.636 0 0 0 .92 0l.948-.947v13.842l-.947-.947a.636.636 0 0 0-.922 0 .636.636 0 0 0 0 .92l2.053 2.053c.132.132.29.185.447.185.158 0 .343-.053.448-.185l2.052-2.052a.636.636 0 0 0 0-.921c-.21-.264-.605-.264-.868-.027ZM17.276 7.998H1.013a.652.652 0 0 0-.658.658v16.289c0 .369.29.658.658.658h16.29c.368 0 .658-.29.658-.658V8.655a.692.692 0 0 0-.684-.657Z"/></g></svg>