<svg xmlns="http://www.w3.org/2000/svg" width="41" height="41" fill="none">
  <rect width="40" height="40" x=".026" y=".807" fill="#fff" rx="10"/>
  <path fill="url(#a)" d="M26.235 6.168H13.818a8.477 8.477 0 0 0-8.477 8.477v12.416a8.477 8.477 0 0 0 8.477 8.477h12.416a8.477 8.477 0 0 0 8.477-8.477V14.646a8.477 8.477 0 0 0-8.477-8.477v-.001Zm5.772 21.112a5.627 5.627 0 0 1-5.627 5.627H13.673a5.627 5.627 0 0 1-5.627-5.627V14.574a5.627 5.627 0 0 1 5.627-5.627h12.706a5.627 5.627 0 0 1 5.627 5.627V27.28Z"/>
  <path fill="url(#b)" d="M20.027 13.307a7.621 7.621 0 1 0 0 15.242 7.621 7.621 0 0 0 0-15.242Zm0 12.56a4.94 4.94 0 1 1 0-9.88 4.94 4.94 0 0 1 0 9.88Z"/>
  <path fill="url(#c)" d="M27.901 14.793a1.775 1.775 0 1 0 0-3.55 1.775 1.775 0 0 0 0 3.55Z"/>
  <defs>
    <linearGradient id="a" x1="24.495" x2="-2.235" y1="40.843" y2="30.113" gradientUnits="userSpaceOnUse">
      <stop stop-color="#5C41BE"/>
      <stop offset="1" stop-color="#8067DC"/>
    </linearGradient>
    <linearGradient id="b" x1="22.346" x2="8.475" y1="31.301" y2="25.733" gradientUnits="userSpaceOnUse">
      <stop stop-color="#5C41BE"/>
      <stop offset="1" stop-color="#8067DC"/>
    </linearGradient>
    <linearGradient id="c" x1="28.442" x2="25.21" y1="15.434" y2="14.137" gradientUnits="userSpaceOnUse">
      <stop stop-color="#5C41BE"/>
      <stop offset="1" stop-color="#8067DC"/>
    </linearGradient>
  </defs>
</svg>
