<svg xmlns="http://www.w3.org/2000/svg" width="30" height="31" fill="none"><g fill="#C1B2F5"><path d="M21.902 12.242H8.128a1.339 1.339 0 0 1-1.347-1.347l-.52-9.152c0-.765.612-1.347 1.347-1.347h14.784c.765 0 1.346.612 1.346 1.347l-.49 9.121c0 .765-.58 1.378-1.346 1.378ZM20.188 29.138c-.03.734-.612 1.316-1.316 1.316h-7.744c-.704 0-1.255-.582-1.316-1.316v-.153l.612-4.96a8.414 8.414 0 0 0 4.591 1.348c1.714 0 3.306-.52 4.653-1.378l.52 5.02v.122Z"/><path d="M15.015 13.313c-4.652 0-8.448 1.071-8.51 2.418a8.42 8.42 0 0 0 3.919 7.04 8.414 8.414 0 0 0 4.591 1.347c1.714 0 3.306-.52 4.653-1.377 2.295-1.5 3.826-4.071 3.856-7.01-.06-1.347-3.856-2.418-8.509-2.418Zm0 3.673c-3.367 0-6.091-.551-6.091-1.224 0-.674 2.724-1.225 6.091-1.225s6.091.551 6.091 1.225c0 .673-2.724 1.224-6.09 1.224Z"/></g><path fill="#C1B2F5" fill-rule="evenodd" d="m4.935 12.05-1.027-.315a1.1 1.1 0 0 1-.758-.758L2.834 9.95a.28.28 0 0 0-.535 0l-.316 1.027a1.1 1.1 0 0 1-.758.758l-1.027.316a.28.28 0 0 0 0 .535l1.027.316a1.1 1.1 0 0 1 .758.758l.316 1.028a.28.28 0 0 0 .535 0l.316-1.028a1.1 1.1 0 0 1 .758-.758l1.027-.316a.28.28 0 0 0 0-.535ZM5.59 18.532l-.703-.216a.752.752 0 0 1-.518-.518l-.216-.702a.191.191 0 0 0-.366 0l-.216.702a.752.752 0 0 1-.519.518l-.702.216a.192.192 0 0 0 0 .366l.702.216a.752.752 0 0 1 .519.519l.216.702a.192.192 0 0 0 .366 0l.216-.702a.753.753 0 0 1 .518-.519l.703-.216a.192.192 0 0 0 0-.366ZM28.242 8.474l-.703-.216a.752.752 0 0 1-.518-.518l-.216-.703a.191.191 0 0 0-.366 0l-.216.703a.751.751 0 0 1-.518.518l-.703.216a.191.191 0 0 0 0 .366l.703.216a.752.752 0 0 1 .518.519l.216.702a.192.192 0 0 0 .366 0l.216-.702a.752.752 0 0 1 .518-.519l.703-.216a.192.192 0 0 0 0-.366ZM29.82 15.22l-.933-.286a1.002 1.002 0 0 1-.69-.69l-.287-.934a.255.255 0 0 0-.487 0l-.287.934a1 1 0 0 1-.69.69l-.933.287a.255.255 0 0 0 0 .487l.934.287a1 1 0 0 1 .69.69l.286.933a.255.255 0 0 0 .487 0l.287-.934a1 1 0 0 1 .69-.69l.934-.286a.255.255 0 0 0 0-.487Z" clip-rule="evenodd"/></svg>