<svg width="21" height="21" fill="none" xmlns="http://www.w3.org/2000/svg"><path d="M16.683 15.039a2.03 2.03 0 0 1 .565 1.452 2.05 2.05 0 0 1-.62 1.428l-2.207 2.147c-.369.364-.864.567-1.379.566a2.048 2.048 0 0 1-1.055-.314 31.811 31.811 0 0 1-6.069-4.979 31.943 31.943 0 0 1-4.683-6.334 2.044 2.044 0 0 1 .359-2.468L3.8 4.383a1.999 1.999 0 0 1 1.428-.563c.531.01 1.036.233 1.406.62l1.828 1.929c.368.39.57.912.559 1.452a2.055 2.055 0 0 1-.614 1.429l-.642.622a.624.624 0 0 0-.158.664 5.53 5.53 0 0 0 1.205 1.984 5.439 5.439 0 0 0 1.905 1.302.62.62 0 0 0 .69-.14l.641-.629a1.998 1.998 0 0 1 2.835.056l1.8 1.93zm-3.71-6.53c.277.297.488.652.619 1.039.13.387.178.798.14 1.205a.705.705 0 0 0 .165.507c.118.14.287.227.47.241h.047a.685.685 0 0 0 .472-.187.703.703 0 0 0 .218-.463 4.144 4.144 0 0 0-.207-1.797 4.098 4.098 0 0 0-.952-1.531 4.026 4.026 0 0 0-1.51-.965 3.983 3.983 0 0 0-1.772-.21.684.684 0 0 0-.474.24.703.703 0 0 0-.097.772.7.7 0 0 0 .4.352c.086.03.177.04.267.034a2.798 2.798 0 0 1 2.214.763zm-2.145-4.734a.684.684 0 0 0-.473.24.703.703 0 0 0-.097.772.7.7 0 0 0 .4.352c.085.03.176.04.267.034a4.909 4.909 0 0 1 2.135.254c.685.242 1.31.633 1.83 1.145a5.082 5.082 0 0 1 1.126 1.856c.239.694.325 1.433.254 2.164a.708.708 0 0 0 .167.51.692.692 0 0 0 .474.238h.048a.685.685 0 0 0 .472-.187.703.703 0 0 0 .218-.463 6.564 6.564 0 0 0-.336-2.757 6.496 6.496 0 0 0-1.443-2.361 6.346 6.346 0 0 0-2.326-1.461 6.278 6.278 0 0 0-2.716-.336zm7.173-.363a7.977 7.977 0 0 0-2.922-1.832 7.892 7.892 0 0 0-3.41-.42.688.688 0 0 0-.473.24.707.707 0 0 0 .068.988.685.685 0 0 0 .502.17 6.516 6.516 0 0 1 2.829.335 6.586 6.586 0 0 1 2.426 1.511 6.714 6.714 0 0 1 1.49 2.457c.314.92.427 1.896.331 2.864a.708.708 0 0 0 .38.677c.082.04.17.065.261.071h.049a.685.685 0 0 0 .471-.187.703.703 0 0 0 .218-.463 8.209 8.209 0 0 0-.415-3.453 8.123 8.123 0 0 0-1.805-2.958z" fill="#fff"/></svg>