<svg width="41" height="41" fill="none" xmlns="http://www.w3.org/2000/svg"><rect x=".026" y=".877" width="40" height="40" rx="10" fill="#fff" fill-opacity=".7"/><path d="M26.235 6.238H13.818a8.477 8.477 0 0 0-8.477 8.477v12.416a8.477 8.477 0 0 0 8.477 8.477h12.416a8.477 8.477 0 0 0 8.477-8.477V14.716a8.477 8.477 0 0 0-8.477-8.477zm5.772 21.112a5.627 5.627 0 0 1-5.627 5.627H13.673a5.627 5.627 0 0 1-5.627-5.627V14.644a5.627 5.627 0 0 1 5.627-5.627h12.706a5.627 5.627 0 0 1 5.627 5.627V27.35z" fill="#231B42"/><path d="M20.027 13.377a7.62 7.62 0 1 0 0 15.242 7.62 7.62 0 0 0 0-15.242zm0 12.561a4.94 4.94 0 1 1 0-9.88 4.94 4.94 0 0 1 0 9.88zM27.901 14.861a1.775 1.775 0 1 0 0-3.55 1.775 1.775 0 0 0 0 3.55z" fill="#231B42"/></svg>