<svg xmlns="http://www.w3.org/2000/svg" width="30" height="31" fill="none"><g fill="#C1B2F5"><path d="M7.149 19.928c-.397 2.382-1.191 5.41-2.73 7.792l-.347.546c-.347.546.05 1.24.695 1.24h5.856a.85.85 0 0 0 .794-.595l.695-2.035c.05-.199.347-.199.397 0l.694 2.035a.85.85 0 0 0 .795.595h3.076a.85.85 0 0 0 .794-.595l.943-2.78c.05-.198.348-.198.397 0l.943 2.78a.85.85 0 0 0 .794.595h2.58a.746.746 0 0 0 .696-.496c.843-2.68.992-6.65.695-9.082H7.149ZM25.015 13.923l-5.31-.794c-.496-.05-.794-.496-.744-.992l.843-6.551c.15-1.092-.198-2.134-.893-2.978a3.798 3.798 0 0 0-2.829-1.29c-1.091 0-2.134.447-2.829 1.29a3.773 3.773 0 0 0-.893 2.978l.844 6.55c.05.497-.298.944-.745.993l-5.409.794c-.595.1-.992.596-.992 1.142v1.737c0 .645.546 1.19 1.19 1.19h17.618c.645 0 1.191-.545 1.191-1.19v-1.737c-.05-.596-.446-1.043-1.042-1.142Zm-8.982-7.295a1.546 1.546 0 0 1-1.539-1.538c0-.844.695-1.539 1.539-1.539.843 0 1.538.695 1.538 1.539 0 .843-.695 1.538-1.538 1.538Z"/></g></svg>