<svg width="40" height="41" fill="none" xmlns="http://www.w3.org/2000/svg"><g clip-path="url(#a)" fill-rule="evenodd" clip-rule="evenodd"><path d="M20.056.88A19.478 19.478 0 0 1 33.92 6.628a19.475 19.475 0 0 1 5.735 13.862c-.004 10.803-8.798 19.593-19.6 19.593h-.008a19.587 19.587 0 0 1-9.366-2.385L.291 40.422l2.78-10.153a19.558 19.558 0 0 1-2.615-9.796C.46 9.67 9.252.881 20.056.881z" fill="#fff" fill-opacity=".7"/><path d="M15.157 11.487c-.367-.816-.753-.832-1.102-.847-.285-.012-.612-.011-.938-.011-.327 0-.857.123-1.306.613-.449.49-1.714 1.674-1.714 4.084 0 2.41 1.755 4.738 2 5.065.244.326 3.387 5.429 8.365 7.392 4.137 1.631 4.979 1.307 5.877 1.225.898-.082 2.897-1.184 3.305-2.328.409-1.143.409-2.123.286-2.328-.122-.204-.449-.327-.939-.572-.49-.245-2.897-1.43-3.346-1.593-.449-.163-.776-.245-1.102.246-.327.49-1.265 1.592-1.55 1.919-.286.327-.572.368-1.061.123-.49-.246-2.068-.762-3.939-2.43-1.456-1.299-2.438-2.902-2.724-3.392-.286-.49-.03-.755.215-1 .22-.219.49-.57.734-.857.245-.286.326-.49.49-.816.163-.328.081-.613-.041-.858-.123-.245-1.074-2.667-1.51-3.635z" fill="#231B42"/></g><defs><clipPath id="a"><path fill="#fff" transform="translate(.062 .877)" d="M0 0h39.824v40H0z"/></clipPath></defs></svg>