<svg width="40" height="41" fill="none" xmlns="http://www.w3.org/2000/svg"><path d="M16.663 29.85V10.961c0-1.833 1.5-3.333 3.333-3.333h14.489V5.273a2.236 2.236 0 0 0-2.222-2.223l-17.211.011a.55.55 0 0 0-.556.556v5.611a.557.557 0 0 1-.555.556H8.374a.55.55 0 0 0-.556.555v26.045c0 1.222.99 2.222 2.223 2.222h22.222c1.21 0 2.222-1 2.222-2.222v-3.2H19.996a3.343 3.343 0 0 1-3.333-3.334z" fill="#5C41BE"/><path d="M8.475 7.557h3.514a.278.278 0 0 0 .277-.278V3.735c0-.248-.3-.372-.475-.196L8.277 7.083a.278.278 0 0 0 .198.474z" fill="#5C41BE"/><path d="M5.281 13.263H2.503a.278.278 0 0 0-.277.277v20.861l.03.14 1.36 3.034a.278.278 0 0 0 .493.004l1.418-3.036.032-.144V13.54a.278.278 0 0 0-.278-.278z" fill="#FFC053"/><path d="M4.448 8.749H3.337c-.614 0-1.111.497-1.111 1.111v1.945c0 .153.124.277.277.277h2.778a.278.278 0 0 0 .278-.277V9.86c0-.614-.498-1.111-1.111-1.111z" fill="#0094D2"/><path d="M36.663 9.85H19.995c-.611 0-1.111.5-1.111 1.111v18.89c0 .61.5 1.11 1.11 1.11h16.668c.61 0 1.11-.5 1.11-1.11V10.96c0-.61-.5-1.11-1.11-1.11zm-15.556 2.522c0-.155.122-.277.278-.277h13.889c.155 0 .277.122.277.277v5a.275.275 0 0 1-.277.278h-13.89a.275.275 0 0 1-.277-.278v-5zm.011 7.756c0-.145.122-.278.278-.278h2.778a.29.29 0 0 1 .277.278v2.778a.282.282 0 0 1-.277.277h-2.778a.275.275 0 0 1-.278-.277v-2.778zm3.4 8.411a.282.282 0 0 1-.278.278h-2.777a.282.282 0 0 1-.278-.278v-2.778c0-.155.122-.278.278-.278h2.777c.156 0 .278.123.278.278v2.778zm2.167-8.411c0-.145.122-.278.278-.278h2.777c.156 0 .278.133.278.278v2.778a.275.275 0 0 1-.278.277h-2.777a.275.275 0 0 1-.278-.277v-2.778zm3.41 8.411a.29.29 0 0 1-.277.278H27.04a.282.282 0 0 1-.277-.278v-2.778c0-.155.122-.278.277-.278h2.778c.145 0 .278.123.278.278v2.778zm2.145-8.411c0-.145.123-.278.278-.278h2.778c.156 0 .278.133.278.278v2.778a.275.275 0 0 1-.278.277h-2.778a.275.275 0 0 1-.278-.277v-2.778zm3.411 8.411a.29.29 0 0 1-.277.278h-2.778a.282.282 0 0 1-.278-.278v-2.778c0-.155.122-.278.278-.278h2.778c.144 0 .277.123.277.278v2.778z" fill="#5C41BE"/></svg>