<svg xmlns="http://www.w3.org/2000/svg" width="29" height="28" fill="none">
  <g fill="#765FCB">
    <path d="M22.92 11.93c-.473-.216-.99-.259-1.464-.216-.043-.775-.13-1.507-.215-2.283H4.74c-.172 1.336-.301 2.714-.301 4.136 0 6.375 2.024 11.89 4.954 14.388h7.194c1.594-1.335 2.886-3.575 3.748-6.332.603-.044 1.206-.259 1.81-.604.99-.603 1.809-1.637 2.325-2.843 1.078-2.67.431-5.428-1.55-6.246Zm-.129 5.514c-.387.861-.99 1.637-1.637 2.025-.086.043-.215.129-.344.172.43-1.852.646-3.92.646-6.074v-.13c.086 0 .172-.043.215-.043.13 0 .345.043.474.087 1.12.517 1.379 2.326.646 3.963ZM11.806 8.268c.258-.172.215-.43.172-.69-.215-1.12 0-2.11.69-3.058.387-.56.516-1.206.516-1.852 0-.905-.301-1.68-.947-2.284-.216-.215-.474-.473-.862-.258-.345.172-.258.517-.172.775.172.862-.086 1.68-.431 2.456-.258.517-.517 1.077-.646 1.637-.345 1.206.043 2.24.948 3.102.172.172.43.344.732.172ZM15.597 8.096c.302-.13.302-.388.259-.646-.173-.905.129-1.68.603-2.499.56-.99.517-1.982-.216-2.93-.215-.258-.473-.646-.861-.516-.474.129-.259.603-.259.947 0 .259 0 .517-.043.776-.172.56-.43 1.077-.603 1.637-.474 1.206-.301 2.326.474 2.972.13.173.345.345.646.259Z"/>
  </g>
</svg>
