<svg xmlns="http://www.w3.org/2000/svg" width="30" height="31" fill="none"><path fill="#C1B2F5" fill-rule="evenodd" d="M7.138 14.8 6.38 10.85a6.693 6.693 0 0 1 1.533-5.4A6.693 6.693 0 0 1 13 3.11h4.137c1.957 0 3.811.853 5.086 2.34a6.69 6.69 0 0 1 1.537 5.38l-.805 3.99a5.182 5.182 0 0 0-3.206 4.19c-1.312-.289-2.881-.434-4.678-.434-1.796 0-3.365.145-4.675.434a5.166 5.166 0 0 0-3.258-4.21Zm17.726.681a2.582 2.582 0 0 1 2.549 2.964 2.572 2.572 0 0 1-1.559 1.995c-.055.023-.101.057-.147.088-.015.011-.034.018-.048.029a.773.773 0 0 0-.28.596v2.062a3.612 3.612 0 0 1-3.608 3.607v.516a.516.516 0 0 1-1.03 0v-.516H9.4v.516a.516.516 0 0 1-1.031 0v-.516a3.612 3.612 0 0 1-3.609-3.607v-2.062a.767.767 0 0 0-.442-.692c-.011-.006-.02-.015-.034-.02l-.075-.039a2.548 2.548 0 0 1-.27-.137 2.564 2.564 0 0 1-1.203-1.778 2.529 2.529 0 0 1-.038-.427 2.581 2.581 0 0 1 2.578-2.579c.142 0 .281.007.42.022 2.078.212 3.704 1.973 3.704 4.155v.675l.65-.178c.92-.25 2.535-.549 5.02-.549 2.484 0 4.101.298 5.019.549l.651.127v-.676a4.129 4.129 0 0 1 4.124-4.125Z" clip-rule="evenodd"/></svg>