<svg width="66" height="65" fill="none" xmlns="http://www.w3.org/2000/svg"><rect x=".25" width="65" height="65" rx="32.5" fill="#5C41BE"/><g fill="#fff"><path d="M38.081 35.877H27.454c-3.634 0-6.932 2.26-8.215 5.68l-.397.977c-.58 1.558.397 3.268 2.016 3.543a75.609 75.609 0 0 0 23.758 0 2.583 2.583 0 0 0 2.016-3.543l-.398-.977c-1.221-3.42-4.489-5.68-8.153-5.68zM39.67 25.708c0 4.673-3.085 9.223-6.902 9.223s-6.902-4.55-6.902-9.223c0-4.672 3.115-7.726 6.902-7.726 3.786 0 6.901 3.024 6.901 7.726z"/></g></svg>