<svg width="41" height="41" fill="none" xmlns="http://www.w3.org/2000/svg"><g clip-path="url(#a)"><path d="M20.474 40.877c11.045 0 20-8.954 20-20s-8.955-20-20-20c-11.046 0-20 8.954-20 20s8.954 20 20 20z" fill="#fff" fill-opacity=".7"/><path d="M8.797 20.704s10-4.104 13.468-5.549c1.33-.578 5.839-2.428 5.839-2.428s2.08-.809 1.907 1.157c-.058.809-.52 3.641-.982 6.705-.694 4.335-1.446 9.075-1.446 9.075s-.115 1.33-1.098 1.56c-.982.232-2.601-.809-2.89-1.04-.231-.173-4.335-2.774-5.838-4.046-.405-.347-.867-1.04.058-1.85 2.08-1.907 4.566-4.277 6.069-5.78.694-.694 1.387-2.312-1.503-.347-4.104 2.832-8.15 5.491-8.15 5.491s-.925.578-2.66.058c-1.733-.52-3.756-1.214-3.756-1.214s-1.388-.867.982-1.792z" fill="#231B42"/></g><defs><clipPath id="a"><path fill="#fff" transform="translate(.474 .877)" d="M0 0h40v40H0z"/></clipPath></defs></svg>