<svg width="30" height="30" fill="none" xmlns="http://www.w3.org/2000/svg"><path d="M10.35 4.76a.775.775 0 0 1 .77-.724.78.78 0 0 1 .774.723c.009.275 0 .552.003.828h6.205c.005-.29-.01-.581.006-.871a.776.776 0 0 1 .769-.68.78.78 0 0 1 .772.723c.01.275 0 .552.004.828.421.004.842-.01 1.263.01a3.882 3.882 0 0 1 2.364 1.016c.823.751 1.307 1.875 1.244 2.99a.777.777 0 0 1-.608.62c-.159.028-.32.015-.48.017H6.272c-.406.025-.791-.314-.807-.723a3.865 3.865 0 0 1 .75-2.34A3.902 3.902 0 0 1 8.502 5.68c.604-.142 1.228-.08 1.843-.093.003-.276-.006-.552.003-.827z" fill="url(#a)"/><path d="M5.903 11.821c.152-.042.311-.028.467-.03h17.5a.78.78 0 0 1 .784.729 94.573 94.573 0 0 1-.142 8.232 3.884 3.884 0 0 1-2.85 3.524c-.354.1-.722.131-1.088.146-3.68.22-7.373.218-11.054.005-.334-.017-.67-.03-.997-.106a3.898 3.898 0 0 1-2.309-1.518 3.86 3.86 0 0 1-.724-2 94.487 94.487 0 0 1-.154-7.991c.005-.179-.01-.366.063-.534a.79.79 0 0 1 .504-.457zm4.951 2.328a1.164 1.164 0 1 0 1.04 2 1.164 1.164 0 0 0-.053-1.78c-.272-.22-.647-.3-.987-.22zm3.878 0a1.164 1.164 0 0 0 .117 2.285 1.162 1.162 0 0 0 .869-2.067 1.168 1.168 0 0 0-.986-.218zm3.876 0a1.173 1.173 0 0 0-.775.62c-.158.318-.157.708 0 1.025a1.162 1.162 0 1 0 1.734-1.448 1.168 1.168 0 0 0-.959-.196zm-7.757 3.88a1.165 1.165 0 0 0 .118 2.284 1.162 1.162 0 1 0-.118-2.285zm3.881-.002c-.345.08-.647.328-.792.653-.148.322-.136.711.031 1.023a1.163 1.163 0 1 0 1.749-1.457c-.273-.219-.648-.3-.988-.219zm3.875.001a1.171 1.171 0 0 0-.79.652c-.142.311-.136.687.017.994a1.161 1.161 0 0 0 2.205-.566 1.165 1.165 0 0 0-1.432-1.08z" fill="url(#b)"/><defs><linearGradient id="a" x1="17.898" y1="11.362" x2="9.904" y2="1.506" gradientUnits="userSpaceOnUse"><stop stop-color="#5C41BE"/><stop offset="1" stop-color="#8067DC"/></linearGradient><linearGradient id="b" x1="17.948" y1="26.898" x2="2.995" y2="17.811" gradientUnits="userSpaceOnUse"><stop stop-color="#5C41BE"/><stop offset="1" stop-color="#8067DC"/></linearGradient></defs></svg>