<svg width="39" height="41" fill="none" xmlns="http://www.w3.org/2000/svg"><g clip-path="url(#a)" fill="#fff" fill-opacity=".7"><path d="M34.928 23.298c-.985 8.13-6.794 8.643-7.864 8.994-.456.15-4.692 1.228-10.016.871l-5.772 6.397-.006-7.371-.046-.013c-7.754-2.205-7.493-10.47-7.406-14.81.088-4.338.884-7.893 3.25-10.284C11.316 3.14 20.07 3.73 20.07 3.73c7.392.033 10.936 2.311 11.757 3.075 2.727 2.391 4.117 8.112 3.1 16.492M33.845 4.775C32.873 3.862 28.95.945 20.21.905c0 0-10.305-.636-15.329 4.083C2.085 7.85 1.101 12.04.996 17.235c-.102 5.197-.238 14.93 8.929 17.572l.008.002-.005 4.028s-.058 1.631.99 1.963c1.268.403 2.012-.836 3.225-2.172.665-.733 1.582-1.81 2.273-2.634 6.27.537 11.092-.695 11.64-.877 1.266-.421 8.429-1.36 9.593-11.093 1.202-10.037-.582-16.384-3.806-19.248"/><path d="M28.253 24.51s-1.175-1.004-1.748-1.435c-.54-.406-1.4-.951-1.882-1.23-.863-.492-1.745-.182-2.11.301l-.756.973c-.388.494-.985.41-1.142.38-1.118-.281-2.306-.98-3.522-2.158-1.23-1.189-1.976-2.43-2.241-3.72l-.02-.086c-.071-.53.018-.775.234-1.137l.04-.033c.511-.475 1.459-1.054 1.586-1.604.372-.956-1.244-2.951-1.476-3.302 0 0-1.175-1.557-1.592-1.853-.452-.376-1.15-.59-1.856-.157l-.036.027c-2.025 1.37-2.759 2.158-2.559 3.334l.105.473c1.027 3.238 3.01 6.69 5.968 9.763 2.926 3.036 6.09 4.854 9.21 6.114.81.269 1.65.037 2.512-.7l.014-.011a8.037 8.037 0 0 0 1.575-1.986l.004-.014c.38-.748.251-1.457-.308-1.939M23.397 17.42a.236.236 0 0 1-.233-.227c-.04-.84-.267-1.482-.673-1.911-.403-.427-1.008-.664-1.796-.708a.237.237 0 0 1-.22-.252.236.236 0 0 1 .246-.226c.91.05 1.617.337 2.105.854.486.514.756 1.26.803 2.219a.237.237 0 0 1-.221.25h-.012"/><path d="M25.705 18.212h-.006a.238.238 0 0 1-.228-.245c.036-1.61-.434-2.973-1.398-4.05a5.101 5.101 0 0 0-1.735-1.263c-.673-.3-1.457-.486-2.328-.552a.237.237 0 0 1-.215-.255.234.234 0 0 1 .248-.221c1.86.14 3.332.802 4.375 1.97 1.047 1.169 1.559 2.645 1.521 4.383a.238.238 0 0 1-.233.233"/><path d="M28.068 19.158a.236.236 0 0 1-.233-.236c-.011-1.424-.226-2.713-.64-3.83a8.019 8.019 0 0 0-1.846-2.9 8.333 8.333 0 0 0-2.754-1.843c-1.015-.412-2.146-.624-3.363-.634a.237.237 0 0 1-.231-.24.235.235 0 0 1 .233-.237h.001c2.554.02 4.719.898 6.44 2.613a8.45 8.45 0 0 1 1.957 3.072c.433 1.17.659 2.515.67 3.996a.236.236 0 0 1-.232.24h-.002z"/></g><defs><clipPath id="a"><path fill="#fff" transform="translate(.974 .877)" d="M0 0h37.053v40H0z"/></clipPath></defs></svg>