<svg xmlns="http://www.w3.org/2000/svg" width="30" height="31" fill="none">
  <path fill="url(#a)" fill-rule="evenodd" d="m11.85 23.323 2.216 5.814a.998.998 0 0 0 1.868 0l2.216-5.814C22.687 21.968 26 17.759 26 12.78c0-6.07-4.929-11-11-11s-11 4.93-11 11c0 4.978 3.313 9.187 7.85 10.542ZM15 7.78c2.76 0 5 2.24 5 5s-2.24 5-5 5-5-2.24-5-5 2.24-5 5-5Z" clip-rule="evenodd"/>
  <defs>
    <linearGradient id="a" x1="18.348" x2="-2.798" y1="34.839" y2="28.17" gradientUnits="userSpaceOnUse">
      <stop stop-color="#5C41BE"/>
      <stop offset="1" stop-color="#8067DC"/>
    </linearGradient>
  </defs>
</svg>
