<svg xmlns="http://www.w3.org/2000/svg" width="30" height="31" fill="none"><path fill="#C1B2F5" d="M26.005 3.057h-3.817c-.358 0-.702.142-.954.396l-8.405 8.404a8.063 8.063 0 0 0-2.099-.277c-2.16 0-4.188.841-5.714 2.367a8.042 8.042 0 0 0-2.37 5.723c0 2.163.841 4.195 2.37 5.725a8.049 8.049 0 0 0 5.723 2.372 8.043 8.043 0 0 0 5.725-2.372 8.09 8.09 0 0 0 2.09-7.815l.772-.771c.148-.147.259-.328.326-.528l.741-2.22 2.222-.743c.402-.133.72-.45.853-.852l.74-2.223 2.224-.742a1.35 1.35 0 0 0 .923-1.279V4.407a1.35 1.35 0 0 0-1.35-1.35ZM11.693 20.626c-.508.508-1.4.508-1.907 0a1.35 1.35 0 0 1 1.909-1.91 1.353 1.353 0 0 1-.002 1.91Z"/></svg>