<svg width="30" height="31" fill="none" xmlns="http://www.w3.org/2000/svg"><path d="M3.6 14.978h22.8c.478 0 .865.388.865.866v4.329c0 .28-.135.542-.362.704-4.19 2.992-6.53 4.49-11.903 4.49s-7.714-1.498-11.903-4.49a.866.866 0 0 1-.363-.704v-4.33c0-.477.388-.865.866-.865zm13.997-6.304 4.12-1.03a.866.866 0 0 1 .42 1.68l-4.54 1.135v2.787h-5.195V8.052c0-.398.27-.744.656-.84l3.463-.866a.866.866 0 0 1 1.076.84v1.488z" fill="url(#a)"/><defs><linearGradient id="a" x1="18.733" y1="28.808" x2="-1.724" y2="18.233" gradientUnits="userSpaceOnUse"><stop stop-color="#5C41BE"/><stop offset="1" stop-color="#8067DC"/></linearGradient></defs></svg>