<svg width="30" height="31" fill="none" xmlns="http://www.w3.org/2000/svg"><path d="m25.244 12.855-3.454-2.542v-3.03a.86.86 0 0 0-.86-.86h-1.397a.86.86 0 0 0-.861.86v.736l-2.634-1.937c-.571-.421-1.507-.421-2.078 0l-9.204 6.773a1.295 1.295 0 0 0-.275 1.805l.255.345c.42.572 1.231.696 1.803.275l7.421-5.462c.571-.42 1.507-.42 2.078 0l7.421 5.462c.572.42 1.384.297 1.804-.275l.255-.345a1.295 1.295 0 0 0-.274-1.805z" fill="url(#a)"/><path d="m22.49 15.755-6.454-4.769c-.57-.422-1.503-.422-2.074 0l-6.453 4.77c-.57.421-1.037 1.039-1.037 1.373v6.915c0 1.124.962 2.034 2.15 2.034h3.94V19.96c0-.472.387-.859.86-.859h3.153c.473 0 .86.386.86.86v6.116h3.942c1.187 0 2.149-.911 2.149-2.034V17.13c0-.334-.466-.952-1.036-1.374z" fill="url(#b)"/><defs><linearGradient id="a" x1="18.277" y1="17.293" x2="5.519" y2="5.998" gradientUnits="userSpaceOnUse"><stop stop-color="#5C41BE"/><stop offset="1" stop-color="#8067DC"/></linearGradient><linearGradient id="b" x1="17.594" y1="28.86" x2="2.543" y2="22.174" gradientUnits="userSpaceOnUse"><stop stop-color="#5C41BE"/><stop offset="1" stop-color="#8067DC"/></linearGradient></defs></svg>