<svg width="26" height="26" viewBox="0 0 26 26" fill="none" xmlns="http://www.w3.org/2000/svg">
<path d="M21.6001 8.85877H17.9088V5.07651C18.0117 2.95087 16.3807 1.13846 14.2552 1.01892H4.84854C2.72621 1.14174 1.10085 2.95313 1.20707 5.07651V25.8053H25.2985V11.8343C25.2985 10.1656 23.6739 8.85877 21.6001 8.85877ZM8.0651 21.9658H4.4987V19.1596H8.0651V21.9658ZM8.0651 17.1989H4.4987V14.3927H8.0651V17.1989ZM8.0651 12.432H4.4987V9.62581H8.0651V12.432ZM8.0651 7.66506H4.4987V4.8589H8.0651V7.66506ZM14.773 21.9658H11.2055V19.1596H14.7719L14.773 21.9658ZM14.773 17.1989H11.2055V14.3927H14.7719L14.773 17.1989ZM14.773 12.432H11.2055V9.62581H14.7719L14.773 12.432ZM14.773 7.66506H11.2055V4.8589H14.7719L14.773 7.66506ZM22.5021 21.9658H18.9345V19.1596H22.5009L22.5021 21.9658ZM22.5021 17.1989H18.9345V14.3927H22.5009L22.5021 17.1989Z" fill="url(#paint0_linear_2004_8783)"/>
<defs>
<linearGradient id="paint0_linear_2004_8783" x1="16.9171" y1="30.2819" x2="-5.18186" y2="21.6586" gradientUnits="userSpaceOnUse">
<stop stop-color="#5C41BE"/>
<stop offset="1" stop-color="#8067DC"/>
</linearGradient>
</defs>
</svg>
