<svg width="40" height="41" fill="none" xmlns="http://www.w3.org/2000/svg"><g clip-path="url(#a)"><path d="M30.587 2.518c.04-.077.056-.185.15-.218a6.812 6.812 0 0 0 3.15 3.53c-1.477.729-2.552 2.087-3.182 3.586a6.781 6.781 0 0 0-2.997-3.485c-.083-.017-.189-.134-.053-.174a6.74 6.74 0 0 0 2.932-3.239z" fill="#FFC053"/><path d="M10.571 6.542h13.567c.91-.003 1.836.131 2.662.529.969.454 1.745 1.26 2.248 2.197.616 1.15.903 2.455.95 3.751.003.441.486.785.905.649.32-.085.534-.406.521-.73.04-1.16.304-2.313.793-3.365 1.449 2.324 2.904 4.645 4.354 6.969-6.584 0-13.167.002-19.75-.002-2.084-3.332-4.168-6.665-6.25-9.998zM3.435 16.54c1.95-3.119 3.893-6.243 5.853-9.357.436.69.866 1.383 1.298 2.075-1.519 2.427-3.033 4.859-4.555 7.285-.865-.002-1.73 0-2.596-.002z" fill="#5C41BE"/><path d="M11.093 11.142c.114-.178.215-.365.349-.53 1.43 2.32 2.887 4.623 4.326 6.937.125.233.366.418.64.419.959.003 1.917 0 2.877.001.002 2.62 0 5.24.001 7.859-1.167-.001-2.334.004-3.501-.003-1.328-.013-2.63-.511-3.654-1.349-1.402-1.102-3.216-1.595-4.986-1.507-.005-1.781.002-3.563-.003-5.345-.03-.183.107-.321.192-.468l3.76-6.014zM20.715 17.969h13.569c.002 3.183.002 6.366 0 9.548-3.185 1.063-6.37 2.127-9.556 3.186-.355.128-.736.134-1.108.126a3.37 3.37 0 0 0-.076-2.366 4.27 4.27 0 0 0-2.83-2.48l.001-8.014zm10.715 3.568a764.582 764.582 0 0 0 0 3.771c-1.277.445-2.567.849-3.845 1.29-.365.132-.55.598-.382.947a.72.72 0 0 0 .91.379c1.408-.468 2.815-.937 4.222-1.407a.719.719 0 0 0 .52-.684c.002-1.433.004-2.867-.002-4.3a.713.713 0 0 0-.748-.702.714.714 0 0 0-.675.706z" fill="#5C41BE"/><path d="M0 23.595c.054-.34.352-.624.702-.621 1.094-.013 2.189 0 3.282-.006.24.002.503-.018.707.13.23.15.327.434.31.698C4.999 28.561 5 33.326 5 38.09c-.005.26.021.524-.027.78-.078.33-.413.55-.745.53-1.176 0-2.353.007-3.53-.004-.35.003-.646-.285-.698-.623V23.595z" fill="#0094D2"/><path d="M6.429 24.403c.54.002 1.08-.014 1.619.01a5.837 5.837 0 0 1 3.288 1.257 7.283 7.283 0 0 0 4.444 1.585c1.093.002 2.186 0 3.28 0 .394.002.795-.02 1.181.076.97.216 1.803.983 2.072 1.943.146.531.014 1.108-.299 1.554-1.453.003-2.906-.003-4.36.002-1.666-.008-3.298.62-4.595 1.648-.3.287-.252.831.089 1.065.272.217.668.162.929-.047.7-.507 1.48-.918 2.332-1.098.715-.173 1.455-.141 2.186-.142 1.823-.002 3.646.001 5.47-.002.627.006 1.215-.23 1.801-.423 4.114-1.374 8.228-2.742 12.341-4.118.32-.122.685-.158 1.007-.02.424.157.705.567.786 1.002v.289c-.056.563-.52.927-.988 1.166-4.29 2.61-8.58 5.224-12.869 7.836-.842.557-1.867.754-2.865.702H6.43c-.002-4.762-.001-9.524-.001-14.285z" fill="#5C41BE"/></g><defs><clipPath id="a"><path fill="#fff" transform="translate(0 .828)" d="M0 0h40v40H0z"/></clipPath></defs></svg>