<svg width="26" height="26" viewBox="0 0 26 26" fill="none" xmlns="http://www.w3.org/2000/svg">
<path d="M14.7725 17.6222C14.7725 16.4141 15.7518 15.4347 16.96 15.4347H22.4851C23.6932 15.4347 24.6726 16.4141 24.6726 17.6222V23.1473C24.6726 24.3554 23.6932 25.3348 22.4851 25.3348H16.96C15.7518 25.3348 14.7725 24.3554 14.7725 23.1473V17.6222Z" fill="white"/>
<path fill-rule="evenodd" clip-rule="evenodd" d="M0.827148 4.22062C0.827148 2.7122 2.04997 1.48938 3.55839 1.48938H8.21984V1.75455C8.21984 2.25735 8.62745 2.66496 9.13025 2.66496H16.3694C16.8722 2.66496 17.2798 2.25735 17.2798 1.75455V1.48938H21.9413C23.4497 1.48938 24.6725 2.7122 24.6725 4.22062V10.6808C24.6725 12.1893 23.4497 13.4121 21.9413 13.4121H15.4811C13.9727 13.4121 12.7498 14.6349 12.7498 16.1433V22.6035C12.7498 24.1119 11.527 25.3348 10.0186 25.3348H3.55839C2.04997 25.3348 0.827148 24.1119 0.827148 22.6035V17.9421C1.4764 17.942 2.00271 17.4157 2.00271 16.7665V10.0577C2.00271 9.40841 1.4764 8.88209 0.827148 8.88208V4.22062Z" fill="#5C41BE"/>
</svg>
