<svg xmlns="http://www.w3.org/2000/svg" width="20" height="20" fill="none">
  <path fill="#5C41BE" fill-rule="evenodd" d="M14.311 9.9h4.455c.341 0 .63.122.867.366.245.245.367.541.367.89v7.11c0 .348-.123.641-.367.878a1.161 1.161 0 0 1-.867.367H1.244c-.333 0-.622-.122-.866-.367A1.157 1.157 0 0 1 0 18.266v-7.11c0-.349.126-.645.378-.89.23-.244.518-.366.866-.366H5.69c.267 0 .511.081.733.244.222.156.374.36.456.611.214.69.61 1.245 1.189 1.667a3.238 3.238 0 0 0 1.933.622c.718 0 1.363-.207 1.933-.622a3.243 3.243 0 0 0 1.2-1.667 1.17 1.17 0 0 1 .456-.61c.222-.164.463-.245.722-.245Zm-2.8-9.411c.089 0 .163.033.223.1a.32.32 0 0 1 .1.233v4.356h1.622c.14 0 .244.059.31.177.06.141.052.26-.022.356l-3.455 4.844c-.074.104-.167.156-.278.156-.103 0-.192-.049-.267-.145L6.266 5.711a.314.314 0 0 1-.022-.356.301.301 0 0 1 .29-.177h1.621V.822c0-.096.034-.174.1-.233a.357.357 0 0 1 .245-.1h3.011Z" clip-rule="evenodd"/>
</svg>
