<svg xmlns="http://www.w3.org/2000/svg" width="25" height="25" fill="none">
  <g fill="#5C41BE">
    <path d="M7.434 2.555c-.2 0-.348.152-.348.338v2.081a.338.338 0 0 0 .342.338h10.343a.342.342 0 0 0 .342-.338V2.893a.341.341 0 0 0-.348-.338h-1.03l-1.379-1.378H9.843L8.465 2.555H7.434Z"/>
    <path fill-rule="evenodd" d="M2.951 5.301a2.754 2.754 0 0 1 2.757-2.745v3.452c0 .386.314.683.703.683h12.377a.693.693 0 0 0 .703-.683V2.556h-.008A2.757 2.757 0 0 1 22.248 5.3v15.184a2.755 2.755 0 0 1-2.765 2.746H5.716a2.757 2.757 0 0 1-2.765-2.746V5.301Zm4.135 6.214c0 .37.31.69.69.69h9.648c.372 0 .689-.31.689-.69 0-.37-.309-.69-.69-.69H7.776a.695.695 0 0 0-.689.69Zm0 5.513c0 .37.31.69.69.69h9.648c.372 0 .689-.31.689-.69 0-.37-.309-.689-.69-.689H7.776a.695.695 0 0 0-.689.69Zm10.338-3.446H7.775a.69.69 0 1 0 0 1.379h9.649a.69.69 0 1 0 0-1.379Z" clip-rule="evenodd"/>
  </g>
</svg>
