<svg xmlns="http://www.w3.org/2000/svg" width="41" height="41" fill="none">
  <g clip-path="url(#a)">
    <path fill="#fff" d="M20.474 40.807c11.045 0 20-8.955 20-20 0-11.046-8.955-20-20-20-11.046 0-20 8.954-20 20 0 11.045 8.954 20 20 20Z"/>
    <path fill="url(#b)" d="M8.797 20.634s10-4.104 13.468-5.549c1.33-.578 5.839-2.428 5.839-2.428s2.08-.809 1.907 1.156c-.058.81-.52 3.642-.982 6.705-.694 4.336-1.446 9.076-1.446 9.076s-.115 1.33-1.098 1.56c-.982.232-2.601-.809-2.89-1.04-.231-.174-4.335-2.775-5.838-4.046-.405-.347-.867-1.04.058-1.85 2.08-1.908 4.566-4.277 6.069-5.78.694-.694 1.387-2.313-1.503-.347-4.104 2.832-8.15 5.491-8.15 5.491s-.925.578-2.66.058c-1.733-.52-3.756-1.214-3.756-1.214s-1.388-.867.982-1.792Z"/>
  </g>
  <defs>
    <linearGradient id="b" x1="22.157" x2="2.82" y1="34.564" y2="25.177" gradientUnits="userSpaceOnUse">
      <stop stop-color="#5C41BE"/>
      <stop offset="1" stop-color="#8067DC"/>
    </linearGradient>
    <clipPath id="a">
      <path fill="#fff" d="M.474.807h40v40h-40z"/>
    </clipPath>
  </defs>
</svg>
