<svg width="30" height="31" fill="none" xmlns="http://www.w3.org/2000/svg"><path d="m26.371 16.651-2.554-1.744a2.056 2.056 0 0 1-.623-2.71l1.277-2.242c.841-1.464-.56-3.208-2.18-2.71l-2.46.748a2.025 2.025 0 0 1-2.492-1.215l-.778-1.962c-.685-1.712-3.115-1.712-3.8 0l-.778 1.962c-.405.997-1.495 1.527-2.492 1.215L8.37 7.65c-2.118-.654-3.924 1.62-2.803 3.52l.592.996c.53.935.249 2.118-.623 2.71l-1.744 1.183c-1.526 1.06-.997 3.426.84 3.706l1.932.28c1.12.188 1.9 1.246 1.713 2.368l-.654 3.892c-.218 1.37 1.432 2.274 2.429 1.309l3.239-3.053c.778-.716 1.993-.747 2.771-.03l2.118 1.9c1.464 1.307 3.769.03 3.395-1.9l-.405-2.087a2.071 2.071 0 0 1 1.713-2.43l2.834-.436c1.464-.155 1.9-2.086.654-2.927z" fill="url(#a)"/><defs><linearGradient id="a" x1="18.683" y1="32.438" x2="-3.414" y2="23.672" gradientUnits="userSpaceOnUse"><stop stop-color="#5C41BE"/><stop offset="1" stop-color="#8067DC"/></linearGradient></defs></svg>