<svg width="40" height="40" fill="none" xmlns="http://www.w3.org/2000/svg"><g clip-path="url(#a)"><path d="m35.745 32.025-3.42-14.56a.28.28 0 0 1 .205-.335l3.84-.9s.045-.01.06-.01c.06 0 .11.02.145.045a.3.3 0 0 1 .125.17l3.42 14.56c.025.1-.01.175-.035.215a.3.3 0 0 1-.17.125l-3.83.9a.28.28 0 0 1-.21-.035.28.28 0 0 1-.125-.17l-.005-.005zM9.53 13.175l1.146.705.774 1.865-.31 1.305a.954.954 0 0 0 .01.475h6.045c.42-.445.9-.805 1.42-1.075a5.614 5.614 0 0 1-4.08-5.39c0-3.09 2.515-5.6 5.6-5.6a5.61 5.61 0 0 1 5.6 5.6c0 2.2-1.274 4.11-3.13 5.025.296.09.58.205.866.345l4.37 2.2c.08.04.16.075.244.11l.78-.78a.98.98 0 0 0 .26-.905l-.31-1.305.77-1.865 1.145-.705a.971.971 0 0 0 .46-.825v-2.59a.971.971 0 0 0-.46-.825l-1.145-.705-.77-1.865.31-1.305a.964.964 0 0 0-.26-.91L27.032 2.32a.973.973 0 0 0-.91-.26l-1.305.31-1.865-.77-.706-1.145a.971.971 0 0 0-.825-.46h-2.595a.971.971 0 0 0-.825.46L17.3 1.6l-1.865.77-1.305-.31a.951.951 0 0 0-.905.26L11.39 4.155a.973.973 0 0 0-.26.91l.31 1.305-.774 1.865-1.145.705a.971.971 0 0 0-.46.825v2.59c0 .335.175.65.46.825l.01-.005z" fill="#422A9B"/><path d="M28.305 34.175c.425.425 1.115.42 1.54 0 .425-.42.42-1.115 0-1.54l-.865-.865-5.95-5.93a1.798 1.798 0 0 0-2.295-.225L18.58 27.05c-1.885 1.25-4.28 1.38-6.26.33a2.331 2.331 0 0 1-1.22-1.67 2.32 2.32 0 0 1 .565-1.99l3.79-4.255h-6.01L6.91 30.275l8.66 8.635c.205.205.475.315.77.315a1.088 1.088 0 0 0 .77-1.855l-2.535-2.525a.966.966 0 0 1 0-1.37.966.966 0 0 1 1.37 0l4.85 4.835c.205.205.475.315.77.315.295 0 .565-.115.77-.32a1.083 1.083 0 0 0 0-1.535l-4.5-4.49a.966.966 0 0 1 0-1.37.966.966 0 0 1 1.37 0l6.205 6.19a1.102 1.102 0 0 0 1.54 0 1.094 1.094 0 0 0 0-1.54l-5.855-5.84a.966.966 0 0 1 0-1.37.966.966 0 0 1 1.37 0l5.855 5.84h.01l-.025-.015z" fill="#0094D2"/><path d="m26.965 20.355-4.37-2.2a3.378 3.378 0 0 0-4.085.78L13.105 25a.37.37 0 0 0-.1.36c.025.145.09.235.225.305 1.35.715 2.99.625 4.275-.235l2.155-1.435c1.51-1 3.455-.81 4.735.47L31.15 31.2c.545.545 1.32.685 2.02.375l.43-.19-2.525-10.74c-1.38.47-2.8.375-4.115-.285l.005-.005z" fill="#0094D2"/><path d="M20.125 14.72a3.665 3.665 0 1 0 0-7.33 3.665 3.665 0 0 0 0 7.33z" fill="#5C41BE"/><path d="M.17 31.205a.28.28 0 0 0 .17.125l3.835.9c.145.035.3-.06.335-.21l3.42-14.555a.254.254 0 0 0-.035-.21.3.3 0 0 0-.17-.125l-3.835-.9s-.045-.01-.065-.01a.262.262 0 0 0-.145.045.3.3 0 0 0-.125.17L.13 31c-.025.095.015.17.035.21l.005-.005z" fill="#422A9B"/></g><defs><clipPath id="a"><path fill="#fff" d="M0 0h40v40H0z"/></clipPath></defs></svg>