<svg xmlns="http://www.w3.org/2000/svg" width="20" height="20" fill="none">
  <g fill="#5C41BE">
    <path d="M4.528 14.604a19.195 19.195 0 0 1-.53-4.13H0a9.96 9.96 0 0 0 1.92 5.408 14.74 14.74 0 0 1 2.608-1.278ZM9.499 10.473H5c.036 1.349.21 2.633.497 3.802a16.568 16.568 0 0 1 4.002-.667v-3.135ZM0 9.472h3.998a19.2 19.2 0 0 1 .53-4.13A14.721 14.721 0 0 1 1.92 4.062 9.952 9.952 0 0 0 0 9.472ZM9.498 19.945v-5.334a15.58 15.58 0 0 0-3.73.63c.81 2.557 2.176 4.379 3.73 4.704ZM10.501 0v5.354a15.644 15.644 0 0 0 3.774-.51C13.47 2.215 12.083.332 10.501 0ZM14.537 5.812c-1.29.341-2.644.526-4.036.544v3.115h4.498a18.087 18.087 0 0 0-.462-3.66ZM9.498 5.334V0c-1.553.325-2.92 2.146-3.73 4.703 1.191.36 2.449.57 3.73.63ZM9.499 9.471V6.337a16.572 16.572 0 0 1-4.002-.668A17.967 17.967 0 0 0 5 9.471H9.5ZM10.501 10.474v3.115c1.393.019 2.746.203 4.036.544.267-1.13.428-2.366.462-3.66h-4.498ZM4.798 15.57c-.79.298-1.537.67-2.24 1.095a10.032 10.032 0 0 0 4.403 2.859c-.9-.948-1.643-2.31-2.163-3.955ZM15.257 15.398c-.521 1.724-1.288 3.145-2.219 4.126a10.05 10.05 0 0 0 4.59-3.062c-.75-.425-1.542-.781-2.37-1.064ZM4.798 4.376C5.318 2.73 6.062 1.369 6.961.42A10.036 10.036 0 0 0 2.557 3.28c.704.425 1.452.797 2.241 1.096ZM10.501 14.591v5.354c1.582-.331 2.97-2.214 3.774-4.844a15.646 15.646 0 0 0-3.774-.51ZM15.257 4.547c.83-.282 1.621-.638 2.37-1.063A10.045 10.045 0 0 0 13.039.42c.93.981 1.698 2.402 2.22 4.126ZM20 10.474H16a19.378 19.378 0 0 1-.484 3.955c.957.322 1.869.734 2.728 1.232A9.96 9.96 0 0 0 20 10.473ZM15.517 5.517c.285 1.213.451 2.546.484 3.954H20a9.96 9.96 0 0 0-1.755-5.188 14.84 14.84 0 0 1-2.727 1.233Z"/>
  </g>
</svg>
