<svg width="31" height="31" fill="none" xmlns="http://www.w3.org/2000/svg"><path fill-rule="evenodd" clip-rule="evenodd" d="M30.994 13.769c-.032-.32-.224-.606-.479-.798l-3.828-2.775V6.623a.422.422 0 0 0-.414-.414H24.74a.422.422 0 0 0-.414.414v1.85L20.02 5.38a1.05 1.05 0 0 0-1.212 0l-8.963 6.476.83 2.297 8.74-6.316 9.697 7.017c.191.16.446.224.701.224.351 0 .702-.16.925-.415.192-.255.288-.574.256-.893zm-19.363.988c.446.096.83.447.989.893l.255.734c.096.255.096.542.032.798a.905.905 0 0 1 .287.319l.096.16a15.605 15.605 0 0 0 4.338 4.337c.383.255.606.67.606 1.085.032.415-.128.797-.415 1.053h9.315c.35 0 .67-.287.67-.67v-8.294l-8.39-6.029-7.783 5.614zm.925 3.446c1.212 1.85 2.743 3.413 4.593 4.625.096.096.16.192.16.351a.512.512 0 0 1-.16.351c-.212.17-.453.34-.694.51-.12.085-.241.17-.358.256a13.432 13.432 0 0 1-3.286-3.159l-.096-.127c-.127-.192-.414-.255-.606-.096-.191.128-.255.415-.095.606l.127.16c.893 1.244 1.978 2.265 3.19 3.158a14.173 14.173 0 0 1-6.73 1.818h-.033a.38.38 0 0 1-.287-.16.549.549 0 0 1-.063-.382c.638-2.137.829-4.307.574-6.508l-.032-.191a.391.391 0 0 1 .255-.447l2.967-1.084c.16-.064.383 0 .478.16l.096.159zm-4.146.128c.032.032.095.032.127.032.064 0 .128 0 .192-.032l3.03-1.085a.385.385 0 0 0 .223-.223c.032-.096.064-.224 0-.32l-.255-.733c-.064-.223-.319-.319-.542-.255l-.861.319-2.36-6.571a.676.676 0 1 0-1.277.446l2.36 6.571-.86.32c-.224.063-.32.318-.256.542l.255.733a.365.365 0 0 0 .224.256zm-3.063 0a2.734 2.734 0 0 0 2.105 2.136c.096.032.16.096.16.224 0 .127-.064.191-.16.223a2.74 2.74 0 0 0-2.105 2.105c-.032.096-.096.16-.223.16-.128 0-.192-.064-.224-.16a2.74 2.74 0 0 0-2.105-2.105.24.24 0 0 1-.16-.223c0-.128.064-.192.16-.224A2.734 2.734 0 0 0 4.9 18.33c.032-.095.096-.16.224-.16.127 0 .191.064.223.16zm-1.404-.543c.096-.032.16-.096.16-.192 0-.095-.064-.19-.16-.19-.67-.16-1.18-.67-1.34-1.34-.031-.096-.095-.16-.19-.16-.096 0-.192.064-.192.16-.16.67-.67 1.18-1.34 1.34-.096.031-.16.095-.16.19 0 .096.064.192.16.192.67.16 1.18.67 1.34 1.34.032.095.096.16.191.16.096 0 .192-.065.192-.16.16-.638.67-1.18 1.34-1.34zm.957-1.372c-.16-.67-.67-1.18-1.34-1.34-.095 0-.159-.095-.159-.19 0-.096.064-.16.16-.192.67-.16 1.18-.67 1.34-1.34 0-.096.095-.16.19-.16.096 0 .16.064.192.16.16.67.67 1.18 1.34 1.34.096 0 .16.095.16.191s-.064.16-.16.192c-.67.16-1.18.67-1.34 1.34 0 .095-.096.159-.191.159-.096 0-.16-.064-.192-.16z" fill="url(#a)"/><defs><linearGradient id="a" x1="20.468" y1="30.533" x2="-3.763" y2="16.816" gradientUnits="userSpaceOnUse"><stop stop-color="#5C41BE"/><stop offset="1" stop-color="#8067DC"/></linearGradient></defs></svg>