<svg width="40" height="40" fill="none" xmlns="http://www.w3.org/2000/svg"><path d="M38.25 3.583 28.542.25c-.583-.208-1.208.25-1.208.875v2.583h-9.417a.747.747 0 0 0-.75.75v2.917c.542.083 1.042.208 1.542.458V5.25h8.583v29.5h-5.708l.083.375c.083.375.125.792.083 1.167h5.542v2.583c0 .625.625 1.084 1.208.875l9.709-3.333a.9.9 0 0 0 .625-.875V4.458c0-.375-.25-.708-.584-.875zm-7.375 17.584c-.5 0-.916-.5-.916-1.167 0-.625.416-1.166.916-1.166s.959.5.959 1.166c-.042.625-.459 1.167-.959 1.167z" fill="#0094D2"/><path d="m8.5 27.125-.708 2.667H3c-1 0-1.833.833-1.833 1.833S2 33.458 3 33.458h6.167c.833 0 1.542-.541 1.792-1.333l.666-2.5-3.041-2.458c-.042 0-.042 0-.084-.042zM17.25 15.625c1.75-.417 2.792-2.125 2.417-3.875-.417-1.75-2.125-2.792-3.875-2.417-1.75.417-2.792 2.125-2.417 3.875s2.125 2.833 3.875 2.417z" fill="#422A9B"/><path d="M18.292 29.375c-.083-.375-.333-.75-.625-1l-3.292-2.667 1.75-4.625 1.75 2.042c.292.333.75.541 1.167.541.292 0 .542-.083.792-.208l3.125-1.875c.708-.416.958-1.375.541-2.125-.416-.708-1.375-.958-2.125-.541l-2 1.208-1.666-1.917c-.459-.5-1-.916-1.667-1.166l-2.75-1c-.833-.292-1.708-.334-2.541-.042l-3.667 1.166c-.417.125-.75.417-.917.834l-1.541 3.416c-.334.792 0 1.667.791 2.042.792.334 1.667 0 2.042-.791l1.25-2.792 1.708-.542-1.416 5.375c-.167.709.041 1.459.625 1.875l5.25 4.25L16.25 36.5c.209.833.959 1.375 1.792 1.375.167 0 .292 0 .458-.042 1-.25 1.584-1.25 1.334-2.25l-1.542-6.208z" fill="#5C41BE"/></svg>