<svg width="26" height="26" viewBox="0 0 26 26" fill="none" xmlns="http://www.w3.org/2000/svg">
<g id="Frame 570">
<g id="Group 90">
<path id="Vector" fill-rule="evenodd" clip-rule="evenodd" d="M17.7146 16.9837H8.78625V16.0909C8.78625 15.5976 9.18579 15.1981 9.67909 15.1981H16.8218C17.3151 15.1981 17.7146 15.5976 17.7146 16.0909V16.9837ZM8.78625 18.7694H17.7146V20.5551H8.78625V18.7694ZM8.78625 24.1264V22.3408H17.7146V24.1264H8.78625ZM7.00058 25.9121H4.32207C2.84219 25.9121 1.64355 24.7135 1.64355 23.2336V10.7339C1.64355 9.89015 2.03975 9.09774 2.71496 8.59107L12.7147 1.09124C13.0328 0.852401 13.4681 0.852401 13.7861 1.09124L23.7859 8.59107C24.4611 9.09774 24.8573 9.89015 24.8573 10.7339V23.2336C24.8573 24.7135 23.6587 25.9121 22.1788 25.9121H19.5003V16.0909C19.5003 14.611 18.3017 13.4124 16.8218 13.4124H9.67909C8.19921 13.4124 7.00058 14.611 7.00058 16.0909V25.9121ZM8.78625 11.6267H17.7146C18.2079 11.6267 18.6075 11.2272 18.6075 10.7339C18.6075 10.2406 18.2079 9.84104 17.7146 9.84104H8.78625C8.29295 9.84104 7.89342 10.2406 7.89342 10.7339C7.89342 11.2272 8.29295 11.6267 8.78625 11.6267Z" fill="url(#paint0_linear_2004_8795)"/>
</g>
</g>
<defs>
<linearGradient id="paint0_linear_2004_8795" x1="16.7829" y1="30.4273" x2="-4.75627" y2="22.3996" gradientUnits="userSpaceOnUse">
<stop stop-color="#5C41BE"/>
<stop offset="1" stop-color="#8067DC"/>
</linearGradient>
</defs>
</svg>
