<svg xmlns="http://www.w3.org/2000/svg" width="40" height="41" fill="none">
  <g fill-rule="evenodd" clip-path="url(#a)" clip-rule="evenodd">
    <path fill="#fff" d="M20.056.81A19.478 19.478 0 0 1 33.92 6.558a19.475 19.475 0 0 1 5.735 13.862c-.004 10.802-8.798 19.593-19.6 19.593h-.008a19.587 19.587 0 0 1-9.366-2.385L.291 40.35l2.78-10.153a19.557 19.557 0 0 1-2.615-9.795C.46 9.6 9.252.81 20.056.81Z"/>
    <path fill="url(#b)" d="M15.157 11.416c-.367-.815-.753-.832-1.102-.846-.285-.012-.612-.011-.938-.011-.327 0-.857.122-1.306.612-.449.49-1.714 1.675-1.714 4.085s1.755 4.738 2 5.064c.244.327 3.387 5.43 8.365 7.392 4.137 1.632 4.979 1.307 5.877 1.226.898-.082 2.897-1.185 3.305-2.328.409-1.144.409-2.124.286-2.329-.122-.204-.449-.326-.939-.571-.49-.245-2.897-1.43-3.346-1.593-.449-.163-.776-.245-1.102.245-.327.49-1.265 1.593-1.55 1.92-.286.327-.572.367-1.061.123-.49-.246-2.068-.763-3.939-2.431-1.456-1.298-2.438-2.901-2.724-3.391-.286-.49-.03-.755.215-1 .22-.219.49-.571.734-.857.245-.286.326-.49.49-.817.163-.327.081-.613-.041-.858-.123-.245-1.074-2.666-1.51-3.635Z"/>
  </g>
  <defs>
    <linearGradient id="b" x1="23.078" x2="5.362" y1="32.353" y2="24.686" gradientUnits="userSpaceOnUse">
      <stop stop-color="#5C41BE"/>
      <stop offset="1" stop-color="#8067DC"/>
    </linearGradient>
    <clipPath id="a">
      <path fill="#fff" d="M.062.807h39.824v40H.062z"/>
    </clipPath>
  </defs>
</svg>
