<svg xmlns="http://www.w3.org/2000/svg" width="46" height="45" fill="none">
  <path fill="url(#a)" fill-rule="evenodd" d="M22.632 0c6.937 0 13.34 3.202 17.43 8.36L23.878 24.723c-3.92-3.774-4.759-4.705-7.545-7.53-1.21-1.226-3.235-1.132-4.435.102-1.151 1.186-1.124 3.04.045 4.208L23.877 33.44l19.565-19.566c1.067 2.668 1.601 5.514 1.601 8.716 0 12.45-9.96 22.411-22.411 22.411C10.182 45 .043 35.04.043 22.589.043 10.139 10.181 0 22.632 0Z" clip-rule="evenodd"/>
  <defs>
    <linearGradient id="a" x1="29.391" x2="-11.565" y1="53.127" y2="36.689" gradientUnits="userSpaceOnUse">
      <stop stop-color="#5C41BE"/>
      <stop offset="1" stop-color="#8067DC"/>
    </linearGradient>
  </defs>
</svg>
