<svg xmlns="http://www.w3.org/2000/svg" width="30" height="33" fill="none">
  <g fill="#5C41BE" clip-path="url(#a)">
    <path d="M27.49 18.153c-.797 6.582-5.5 6.997-6.366 7.282-.37.12-3.799.994-8.11.705l-4.673 5.179-.005-5.968-.037-.01c-6.278-1.785-6.067-8.478-5.996-11.99.07-3.514.715-6.392 2.63-8.328 3.44-3.19 10.528-2.714 10.528-2.714 5.985.027 8.854 1.872 9.52 2.49 2.207 1.936 3.332 6.568 2.51 13.353m-.878-14.996C25.827 2.416 22.65.055 15.574.023c0 0-8.343-.516-12.41 3.305C.898 5.646.101 9.038.017 13.244c-.083 4.207-.193 12.088 7.229 14.227l.006.001-.004 3.262s-.047 1.32.801 1.59c1.028.326 1.63-.678 2.612-1.76a82.352 82.352 0 0 0 1.84-2.132c5.077.435 8.981-.563 9.424-.71 1.026-.34 6.825-1.101 7.768-8.982.973-8.126-.472-13.265-3.082-15.583"/>
    <path d="M22.086 19.134s-.951-.812-1.415-1.161a18.214 18.214 0 0 0-1.524-.995c-.698-.4-1.413-.149-1.708.243l-.612.788c-.314.4-.797.332-.925.307-.905-.227-1.867-.794-2.852-1.747-.996-.962-1.6-1.968-1.814-3.012l-.015-.07c-.059-.428.014-.627.189-.92l.033-.027c.413-.385 1.18-.853 1.283-1.299.301-.774-1.007-2.389-1.195-2.673 0 0-.952-1.26-1.29-1.5-.365-.304-.93-.478-1.502-.127l-.028.021c-1.64 1.11-2.234 1.748-2.073 2.7l.085.383c.832 2.621 2.438 5.416 4.832 7.905 2.369 2.457 4.932 3.93 7.457 4.95.655.217 1.336.03 2.034-.567l.011-.009c.535-.5.959-1.035 1.275-1.608l.003-.011c.308-.606.204-1.18-.249-1.57M18.154 13.393c-.1 0-.183-.08-.188-.183-.033-.68-.216-1.2-.545-1.548-.326-.345-.816-.537-1.454-.573a.192.192 0 0 1-.178-.204.191.191 0 0 1 .199-.183c.736.041 1.31.273 1.704.691.394.417.613 1.021.65 1.797a.192.192 0 0 1-.179.202h-.01"/>
    <path d="M20.024 14.035h-.005a.193.193 0 0 1-.184-.198c.028-1.304-.352-2.407-1.133-3.28a4.132 4.132 0 0 0-1.405-1.022c-.545-.243-1.18-.394-1.884-.447a.192.192 0 0 1-.175-.206.19.19 0 0 1 .202-.18c1.505.114 2.697.65 3.541 1.595.849.947 1.263 2.142 1.232 3.549a.192.192 0 0 1-.189.19"/>
    <path d="M21.937 14.801a.191.191 0 0 1-.189-.191c-.009-1.154-.182-2.197-.518-3.101a6.493 6.493 0 0 0-1.495-2.348 6.749 6.749 0 0 0-2.23-1.493c-.822-.333-1.737-.505-2.722-.512a.192.192 0 0 1-.187-.195.19.19 0 0 1 .189-.192c2.068.016 3.82.727 5.214 2.116a6.842 6.842 0 0 1 1.585 2.487c.35.947.533 2.036.542 3.235a.191.191 0 0 1-.187.195h-.002Z"/>
  </g>
  <defs>
    <clipPath id="a">
      <path fill="#fff" d="M0 0h30v32.386H0z"/>
    </clipPath>
  </defs>
</svg>
