<svg width="41" height="41" fill="none" xmlns="http://www.w3.org/2000/svg"><g clip-path="url(#a)"><path d="m15.674 1.461.45 1.819a18.076 18.076 0 0 0-5.025 2.078l-.963-1.606a19.926 19.926 0 0 1 5.538-2.29zm9.6 0-.45 1.819a18.076 18.076 0 0 1 5.025 2.078l.968-1.606a19.926 19.926 0 0 0-5.543-2.29zM3.349 10.54a19.923 19.923 0 0 0-2.291 5.537l1.819.45A18.074 18.074 0 0 1 4.955 11.5l-1.606-.962zm-1 10.336c-.001-.909.067-1.816.203-2.715l-1.853-.281c-.3 1.986-.3 4.006 0 5.993l1.853-.281a18.091 18.091 0 0 1-.203-2.716zM30.81 38l-.962-1.606a18.075 18.075 0 0 1-5.02 2.078l.45 1.819A19.928 19.928 0 0 0 30.812 38zM38.6 20.875c0 .91-.068 1.817-.203 2.716l1.853.281c.3-1.986.3-4.007 0-5.993l-1.854.281c.136.899.204 1.806.204 2.715zm1.29 4.8-1.819-.45a18.074 18.074 0 0 1-2.078 5.025l1.607.968a19.919 19.919 0 0 0 2.29-5.543zm-16.7 13.124c-1.8.27-3.63.27-5.431 0l-.281 1.853c1.986.3 4.007.3 5.994 0l-.282-1.853zm11.875-7.171a18.192 18.192 0 0 1-3.84 3.837l1.112 1.51a20.03 20.03 0 0 0 4.238-4.226l-1.51-1.121zm-3.84-25.342a18.19 18.19 0 0 1 3.84 3.84l1.51-1.125a20.027 20.027 0 0 0-4.225-4.224l-1.125 1.509zm-25.341 3.84a18.19 18.19 0 0 1 3.84-3.84L8.6 4.776a20.03 20.03 0 0 0-4.225 4.225l1.509 1.125zm31.716.413-1.607.962a18.071 18.071 0 0 1 2.079 5.019l1.818-.45a19.921 19.921 0 0 0-2.29-5.531zM17.758 2.955c1.8-.27 3.631-.27 5.431 0l.282-1.853c-1.987-.3-4.008-.3-5.994 0l.281 1.853zM6.846 37.47l-3.872.903.903-3.872-1.825-.428-.903 3.872a1.875 1.875 0 0 0 2.253 2.253l3.869-.887-.425-1.841zm-4.404-5.068 1.825.425.625-2.685a18.045 18.045 0 0 1-2.015-4.918l-1.819.45a19.848 19.848 0 0 0 1.844 4.753l-.46 1.975zm8.75 4.062-2.684.625.425 1.825 1.975-.46a19.85 19.85 0 0 0 4.753 1.844l.45-1.819a18.051 18.051 0 0 1-4.906-2.028l-.013.013zm9.282-31.838a16.25 16.25 0 0 0-13.75 24.895L5.16 36.187l6.666-1.563a16.25 16.25 0 0 0 23.997-19.118 16.25 16.25 0 0 0-15.35-10.88z" fill="#fff" fill-opacity=".7"/></g><defs><clipPath id="a"><path fill="#fff" transform="translate(.474 .877)" d="M0 0h40v40H0z"/></clipPath></defs></svg>