<svg xmlns="http://www.w3.org/2000/svg" width="31" height="30" fill="none">
  <g fill="#0094D2">
    <path d="M10.213 2.766c.016-.478.455-.887.931-.875.477-.014.915.398.935.874.011.333 0 .667.005 1h7.5c.005-.35-.012-.702.008-1.052a.937.937 0 0 1 .928-.822c.477-.013.914.399.934.874.011.333 0 .667.005 1 .509.006 1.018-.012 1.526.012a4.693 4.693 0 0 1 2.858 1.23c.995.907 1.58 2.265 1.503 3.613a.94.94 0 0 1-.735.75c-.191.033-.386.018-.579.02H5.283c-.49.03-.956-.38-.975-.873a4.672 4.672 0 0 1 .905-2.83 4.716 4.716 0 0 1 2.768-1.809c.73-.171 1.485-.096 2.228-.113.003-.333-.007-.666.004-1ZM4.838 11.3c.184-.05.376-.033.565-.036 7.05.002 14.103 0 21.154.002.483-.017.93.396.947.88.087 3.316.03 6.637-.172 9.95a4.695 4.695 0 0 1-3.446 4.26c-.428.12-.873.159-1.315.176-4.448.266-8.912.264-13.36.006-.404-.02-.81-.036-1.206-.128a4.711 4.711 0 0 1-2.79-1.834 4.667 4.667 0 0 1-.876-2.418c-.2-3.215-.258-6.44-.186-9.66.006-.215-.011-.441.076-.645a.954.954 0 0 1 .61-.552Zm5.984 2.815a1.407 1.407 0 0 0 .138 2.761 1.403 1.403 0 0 0 1.59-1.45 1.408 1.408 0 0 0-1.728-1.311Zm4.687 0a1.407 1.407 0 0 0 .142 2.762 1.404 1.404 0 0 0 1.586-1.454 1.408 1.408 0 0 0-1.728-1.308Zm4.686 0a1.418 1.418 0 0 0-.937.75 1.41 1.41 0 0 0 .001 1.239 1.404 1.404 0 1 0 2.096-1.75 1.412 1.412 0 0 0-1.16-.238Zm-9.377 4.689a1.408 1.408 0 0 0 .142 2.76 1.405 1.405 0 1 0-.142-2.76Zm4.693-.002a1.416 1.416 0 0 0-.958.79c-.18.388-.165.86.038 1.237a1.406 1.406 0 1 0 .92-2.026Zm4.683.002c-.416.098-.78.396-.954.787-.173.377-.165.831.02 1.202a1.404 1.404 0 0 0 2.665-.684 1.408 1.408 0 0 0-1.731-1.305Z"/>
  </g>
</svg>
