<svg width="65" height="65" fill="none" xmlns="http://www.w3.org/2000/svg"><rect width="65" height="65" rx="32.5" fill="#5C41BE"/><path fill-rule="evenodd" clip-rule="evenodd" d="M32.882 32.439a2.409 2.409 0 1 1 0-4.818 2.409 2.409 0 0 1 0 4.818zm12.004-1.848-10.387-8.159a2.522 2.522 0 0 0-3.123 0l-10.387 8.16a1.975 1.975 0 0 0-.75 1.355 1.976 1.976 0 0 0 .449 1.482c.682.821 1.93.944 2.784.274l.497-.391v8.414a2.26 2.26 0 0 0 2.258 2.257h3.558a.521.521 0 0 0 .52-.521v-3.187a2.59 2.59 0 0 1 2.589-2.588 2.59 2.59 0 0 1 2.588 2.588v3.187c0 .288.233.521.52.521h3.646a2.26 2.26 0 0 0 2.258-2.257v-8.414l.497.391c.853.67 2.102.547 2.784-.274.346-.417.506-.944.449-1.483a1.975 1.975 0 0 0-.75-1.355z" fill="#fff"/></svg>