<svg width="41" height="41" fill="none" xmlns="http://www.w3.org/2000/svg"><g clip-path="url(#a)"><mask id="b" style="mask-type:luminance" maskUnits="userSpaceOnUse" x="0" y="0" width="41" height="41"><path d="M40.974.877h-40v40h40v-40z" fill="#fff"/></mask><g mask="url(#b)"><path d="M20.153 40.877h1.665c9.042 0 13.564 0 16.372-2.808s2.784-7.328 2.784-16.347v-1.69c0-9.018 0-13.539-2.784-16.347C35.406.877 30.86.877 21.818.877h-1.665c-9.043 0-13.563 0-16.371 2.808C.974 6.493.974 11.011.974 20.032v1.69c0 9.019 0 13.539 2.808 16.347 2.808 2.808 7.328 2.808 16.37 2.808z" fill="#fff" fill-opacity=".7"/><path d="M22.438 29.717c-9.02 0-14.493-6.258-14.706-16.657H12.3c.143 7.639 3.618 10.88 6.282 11.541v-11.54h4.38v6.59c2.569-.285 5.257-3.283 6.162-6.59h4.306c-.69 4.068-3.616 7.067-5.686 8.303 2.07 1 5.401 3.618 6.686 8.353h-4.734c-1-3.165-3.452-5.616-6.735-5.95v5.95h-.523z" fill="#231B42"/></g></g><defs><clipPath id="a"><path fill="#fff" transform="translate(.974 .877)" d="M0 0h40v40H0z"/></clipPath></defs></svg>