<svg xmlns="http://www.w3.org/2000/svg" width="30" height="31" fill="none"><g fill="#C1B2F5"><path d="M26.573 27.948h-9.644a.964.964 0 0 1-.964-.964V15.412a.964.964 0 0 1 .964-.964h9.644a.965.965 0 0 1 .964.964v11.572a.965.965 0 0 1-.964.964Zm-8.68-1.928h7.715v-9.644h-7.715v9.644ZM14.894 11.12l-1.822-3.654V3.84a.964.964 0 0 0-.965-.964h-6.75a.964.964 0 0 0-.964.964v3.626L2.57 11.121a.964.964 0 0 0 .858 1.398h10.608a.965.965 0 0 0 .858-1.398ZM14.036 15.412H3.428a.964.964 0 0 0-.964.964v10.608a.964.964 0 0 0 .964.964h10.608a.964.964 0 0 0 .964-.964V16.376a.964.964 0 0 0-.964-.964Zm-3.279 4.821h-4.05a.964.964 0 0 1 0-1.928h4.05a.964.964 0 1 1 0 1.928Z"/><path d="M26.573 2.876h-9.644a.964.964 0 0 0-.964.964v11.572a.964.964 0 0 0 .964.964h9.644a.964.964 0 0 0 .964-.964V3.84a.964.964 0 0 0-.964-.964Zm-5.063 8.197a.964.964 0 1 1-1.929 0V8.18a.964.964 0 0 1 1.929 0v2.893Z"/></g></svg>