<svg xmlns="http://www.w3.org/2000/svg" width="39" height="41" fill="none">
  <g fill="#fff" clip-path="url(#a)">
    <path d="M34.928 23.228c-.985 8.129-6.794 8.643-7.864 8.994-.456.149-4.692 1.228-10.016.87l-5.772 6.397-.006-7.37-.046-.013C3.47 29.901 3.73 21.635 3.818 17.296c.088-4.339.884-7.894 3.25-10.284C11.316 3.07 20.07 3.66 20.07 3.66c7.392.033 10.936 2.311 11.757 3.074 2.727 2.392 4.117 8.113 3.1 16.493M33.845 4.705C32.873 3.791 28.95.875 20.21.835c0 0-10.305-.636-15.329 4.082C2.085 7.781 1.101 11.97.996 17.165c-.102 5.197-.238 14.93 8.929 17.571l.008.002-.005 4.029s-.058 1.63.99 1.963c1.268.403 2.012-.837 3.225-2.173.665-.733 1.582-1.81 2.273-2.633 6.27.537 11.092-.695 11.64-.877 1.266-.421 8.429-1.36 9.593-11.094 1.202-10.036-.582-16.383-3.806-19.247"/>
    <path d="M28.253 24.439s-1.175-1.003-1.748-1.434c-.54-.406-1.4-.952-1.882-1.23-.863-.492-1.745-.183-2.11.3l-.756.974c-.388.494-.985.41-1.142.379-1.118-.28-2.306-.98-3.522-2.157-1.23-1.19-1.976-2.43-2.241-3.72l-.02-.086c-.071-.53.018-.776.234-1.137l.04-.034c.511-.475 1.459-1.053 1.586-1.604.372-.956-1.244-2.95-1.476-3.302 0 0-1.175-1.556-1.592-1.853-.452-.375-1.15-.59-1.856-.156l-.036.027c-2.025 1.37-2.759 2.158-2.559 3.333l.105.473c1.027 3.239 3.01 6.69 5.968 9.764 2.926 3.035 6.09 4.854 9.21 6.113.81.27 1.65.038 2.512-.7l.014-.01a8.038 8.038 0 0 0 1.575-1.986l.004-.014c.38-.748.251-1.457-.308-1.94M23.397 17.35a.236.236 0 0 1-.233-.227c-.04-.84-.267-1.482-.673-1.912-.403-.426-1.008-.664-1.796-.707a.237.237 0 0 1-.22-.252.236.236 0 0 1 .246-.226c.91.05 1.617.337 2.105.853.486.515.756 1.261.803 2.22a.237.237 0 0 1-.221.25h-.012"/>
    <path d="M25.705 18.142h-.006a.238.238 0 0 1-.228-.245c.036-1.611-.434-2.973-1.398-4.05a5.103 5.103 0 0 0-1.735-1.263c-.673-.3-1.457-.486-2.328-.553a.237.237 0 0 1-.215-.254.234.234 0 0 1 .248-.222c1.86.14 3.332.802 4.375 1.97 1.047 1.17 1.559 2.645 1.521 4.383a.238.238 0 0 1-.233.234"/>
    <path d="M28.068 19.088a.236.236 0 0 1-.233-.236c-.011-1.425-.226-2.713-.64-3.83a8.019 8.019 0 0 0-1.846-2.9 8.334 8.334 0 0 0-2.754-1.844c-1.015-.412-2.146-.624-3.363-.633a.237.237 0 0 1-.231-.24.235.235 0 0 1 .233-.237h.001c2.554.02 4.719.897 6.44 2.613a8.45 8.45 0 0 1 1.957 3.072c.433 1.17.659 2.514.67 3.995a.236.236 0 0 1-.232.241h-.002v-.001Z"/>
  </g>
  <defs>
    <clipPath id="a">
      <path fill="#fff" d="M.974.807h37.053v40H.974z"/>
    </clipPath>
  </defs>
</svg>
