<svg xmlns="http://www.w3.org/2000/svg" width="30" height="31" fill="none">
  <g clip-path="url(#a)">
    <path fill="#5C41BE" d="M15 30.193c8.284 0 15-6.716 15-15 0-8.284-6.716-15-15-15-8.284 0-15 6.716-15 15 0 8.284 6.716 15 15 15Z"/>
    <path fill="#fff" d="M6.243 15.063s7.5-3.078 10.1-4.162c.998-.433 4.38-1.82 4.38-1.82s1.56-.608 1.43.866c-.043.607-.39 2.732-.737 5.03-.52 3.25-1.084 6.806-1.084 6.806s-.086.997-.823 1.17c-.737.174-1.951-.607-2.168-.78-.173-.13-3.251-2.081-4.379-3.035-.303-.26-.65-.78.044-1.387 1.56-1.43 3.425-3.208 4.552-4.335.52-.52 1.04-1.735-1.127-.26-3.078 2.124-6.113 4.118-6.113 4.118s-.694.433-1.994.043-2.818-.91-2.818-.91-1.04-.65.737-1.344Z"/>
  </g>
  <defs>
    <clipPath id="a">
      <path fill="#fff" d="M0 .193h30v30H0z"/>
    </clipPath>
  </defs>
</svg>
