<svg xmlns="http://www.w3.org/2000/svg" width="30" height="31" fill="none">
  <rect width="30" height="30" y=".193" fill="#5C41BE" rx="10"/>
  <path fill="#fff" d="M19.656 4.215h-9.312a6.358 6.358 0 0 0-6.358 6.357v9.312a6.358 6.358 0 0 0 6.358 6.358h9.312a6.358 6.358 0 0 0 6.357-6.358v-9.31a6.358 6.358 0 0 0-6.357-6.359Zm4.33 15.834a4.22 4.22 0 0 1-4.22 4.22h-9.531a4.22 4.22 0 0 1-4.22-4.22v-9.53a4.22 4.22 0 0 1 4.22-4.22h9.53a4.22 4.22 0 0 1 4.22 4.22v9.53Z"/>
  <path fill="#fff" d="M15 9.568A5.716 5.716 0 1 0 15 21a5.716 5.716 0 0 0 0-11.432Zm0 9.421a3.705 3.705 0 1 1 0-7.41 3.705 3.705 0 0 1 0 7.41ZM20.906 10.682a1.331 1.331 0 1 0 0-2.663 1.331 1.331 0 0 0 0 2.663Z"/>
</svg>
