<svg width="40" height="41" fill="none" xmlns="http://www.w3.org/2000/svg"><path d="M23.721 2.543a5.255 5.255 0 0 1 3.634.594 5.207 5.207 0 0 1 2.115 2.285c.333.712.655 1.428.986 2.139a2.74 2.74 0 0 0 1.559 1.409c.886.316 1.774.626 2.658.946a5.218 5.218 0 0 1 2.857 2.6 5.144 5.144 0 0 1 .312 3.814c-.24.709-.508 1.406-.76 2.111-.158.471-.384.928-.428 1.43-.05.489.048.987.26 1.429.352.745.689 1.497 1.055 2.235a5.211 5.211 0 0 1-2.356 6.662c-.533.267-1.075.516-1.61.777-.44.218-.916.393-1.286.727-.332.29-.59.663-.748 1.075-.37.95-.729 1.902-1.1 2.851a5.224 5.224 0 0 1-2.945 2.914 5.221 5.221 0 0 1-3.62.082c-.902-.326-1.802-.658-2.705-.98a2.637 2.637 0 0 0-1.992.089c-.747.343-1.491.693-2.24 1.034a5.223 5.223 0 0 1-6.759-2.377c-.372-.751-.723-1.514-1.093-2.267a2.724 2.724 0 0 0-1.462-1.326c-.97-.38-1.943-.751-2.913-1.129a5.227 5.227 0 0 1-2.705-2.566 5.132 5.132 0 0 1-.248-3.913c.328-.92.67-1.836.998-2.755a2.675 2.675 0 0 0-.08-1.996c-.341-.75-.698-1.492-1.041-2.241a5.206 5.206 0 0 1 2.215-6.676c.554-.288 1.13-.527 1.694-.796.44-.214.918-.375 1.302-.69.396-.313.695-.741.866-1.215.31-.867.615-1.737.926-2.604a5.193 5.193 0 0 1 2.469-2.831 5.211 5.211 0 0 1 4.08-.358c.93.322 1.855.66 2.783.988a2.638 2.638 0 0 0 1.948-.068c.746-.336 1.485-.689 2.23-1.03a5.27 5.27 0 0 1 1.144-.373zm-5.128 6.408c-3.389.38-6.554 2.31-8.467 5.129a11.91 11.91 0 0 0-2.084 6.671c-.023 2.398.7 4.797 2.053 6.78a11.993 11.993 0 0 0 6.459 4.75c2.254.683 4.71.674 6.96-.017a11.976 11.976 0 0 0 8.413-10.55 11.942 11.942 0 0 0-1.473-6.698 12.01 12.01 0 0 0-5.33-4.998c-2.018-.966-4.312-1.327-6.53-1.067z" fill="#5C41BE"/><path d="M18.593 8.95c2.219-.259 4.513.102 6.53 1.068a12.01 12.01 0 0 1 5.33 4.998 11.943 11.943 0 0 1 1.474 6.698 11.976 11.976 0 0 1-8.413 10.55c-2.25.691-4.706.7-6.96.018a11.993 11.993 0 0 1-6.46-4.751 11.917 11.917 0 0 1-2.052-6.78 11.91 11.91 0 0 1 2.084-6.672c1.913-2.819 5.078-4.749 8.467-5.128zm-2.561 5.912a2.265 2.265 0 0 0-1.736 1.16 2.262 2.262 0 0 0-.098 1.96 2.257 2.257 0 0 0 4.33-.835 2.251 2.251 0 0 0-2.496-2.285zm7.686.241c-.22.076-.418.207-.583.37l-8.371 8.37c-.294.265-.533.609-.585 1.01-.134.778.426 1.576 1.18 1.77a1.528 1.528 0 0 0 1.466-.398c2.845-2.843 5.69-5.689 8.534-8.533a1.58 1.58 0 0 0 .322-1.743c-.306-.735-1.217-1.131-1.963-.846zm-.238 7.21c-.7.07-1.347.494-1.7 1.1a2.262 2.262 0 0 0-.108 2.07 2.255 2.255 0 1 0 1.809-3.17z" fill="#0094D2"/><g fill="#fff" fill-opacity=".4"><path d="M16.032 14.862a2.252 2.252 0 0 1 2.497 2.284 2.253 2.253 0 0 1-2.777 2.15 2.264 2.264 0 0 1-1.553-1.315 2.263 2.263 0 0 1 .097-1.958 2.265 2.265 0 0 1 1.736-1.16zM23.718 15.103c.746-.285 1.657.111 1.963.846a1.58 1.58 0 0 1-.322 1.743l-8.534 8.533a1.528 1.528 0 0 1-1.466.398c-.754-.194-1.314-.992-1.18-1.77.052-.401.292-.745.585-1.01 2.792-2.79 5.58-5.58 8.371-8.37.165-.163.364-.294.583-.37zM23.48 22.312a2.25 2.25 0 0 1 2.498 2.2 2.255 2.255 0 1 1-2.498-2.2z"/></g></svg>