<svg width="26" height="26" viewBox="0 0 26 26" fill="none" xmlns="http://www.w3.org/2000/svg">
<path d="M21.9564 15.3348V25.2286C21.4532 25.2286 20.9748 25.2286 19.7649 25.2286H16.2864V19.8012C16.2864 17.8481 14.7034 16.265 12.7502 16.265C10.797 16.265 9.21401 17.848 9.21401 19.8012V25.2286H5.73546C4.52456 25.2286 4.15684 25.2286 3.54395 25.2286V15.3348L12.7499 6.76904L21.9564 15.3348Z" fill="url(#paint0_linear_2004_8788)"/>
<path d="M23.1568 14.2245L12.7501 4.54144L2.34342 14.2245C1.83973 14.6932 1.05237 14.6644 0.583621 14.1607C0.114877 13.6571 0.143665 12.8697 0.647353 12.4009L11.9022 1.92952C12.3802 1.48443 13.1203 1.48443 13.5982 1.92952L24.8531 12.402C25.3567 12.8707 25.3845 13.6581 24.9168 14.1618C24.4481 14.6645 23.6605 14.6932 23.1568 14.2245Z" fill="url(#paint1_linear_2004_8788)"/>
<path d="M20.6238 4.22993V10.1681L18.0684 7.79053V4.22988C18.0684 3.92768 18.314 3.68201 18.6162 3.68201H20.0759C20.3791 3.68201 20.6238 3.9267 20.6238 4.22993Z" fill="url(#paint2_linear_2004_8788)"/>
<defs>
<linearGradient id="paint0_linear_2004_8788" x1="15.552" y1="28.5626" x2="-1.21742" y2="21.8488" gradientUnits="userSpaceOnUse">
<stop stop-color="#5C41BE"/>
<stop offset="1" stop-color="#8067DC"/>
</linearGradient>
<linearGradient id="paint1_linear_2004_8788" x1="16.5542" y1="16.8994" x2="0.0349577" y2="4.11144" gradientUnits="userSpaceOnUse">
<stop stop-color="#5C41BE"/>
<stop offset="1" stop-color="#8067DC"/>
</linearGradient>
<linearGradient id="paint2_linear_2004_8788" x1="19.7349" y1="11.3396" x2="17.1004" y2="10.923" gradientUnits="userSpaceOnUse">
<stop stop-color="#5C41BE"/>
<stop offset="1" stop-color="#8067DC"/>
</linearGradient>
</defs>
</svg>
