<svg xmlns="http://www.w3.org/2000/svg" width="26" height="24" fill="none">
  <g fill="#765FCB" fill-rule="evenodd" clip-rule="evenodd">
    <path d="M2.547.108H10.4c1.107 0 1.881.885 1.881 1.88V9.29c0 1.106-.774 1.88-1.88 1.88H2.546c-.996 0-1.881-.774-1.881-1.88V1.989c0-.996.885-1.88 1.88-1.88ZM15.931.108h7.854c.996 0 1.88.885 1.88 1.88V9.29c0 1.106-.884 1.88-1.88 1.88h-7.854c-.995 0-1.88-.774-1.88-1.88V1.989c0-.996.885-1.88 1.88-1.88ZM2.547 12.83H10.4c1.107 0 1.881.885 1.881 1.88v7.302c0 .995-.774 1.88-1.88 1.88H2.546c-.996 0-1.881-.885-1.881-1.88V14.71c0-.996.885-1.88 1.88-1.88ZM15.931 12.83h7.854c.996 0 1.88.885 1.88 1.88v7.302c0 .995-.884 1.88-1.88 1.88h-7.854c-.995 0-1.88-.885-1.88-1.88V14.71c0-.996.885-1.88 1.88-1.88Z"/>
  </g>
</svg>
