<svg width="65" height="65" fill="none" xmlns="http://www.w3.org/2000/svg"><rect width="65" height="65" rx="32.5" fill="#5C41BE"/><path d="M27.84 34.127v9.311l-5.308 1.139a1.699 1.699 0 0 1-2.056-1.66V29.92c0-.81.55-1.496 1.343-1.666l3.76-.804c.04 2.498.998 4.837 2.26 6.678zM36.901 35.498v9.334c-.198 0-.402-.023-.595-.062l-6.978-1.495a1.526 1.526 0 0 0-.356-.04v-7.674c1.387 1.534 2.911 2.475 3.964 2.475 1.031 0 2.566-.969 3.965-2.538zM45.397 28.7v12.998c0 .81-.55 1.49-1.342 1.666l-6.02 1.285V34.052c1.217-1.778 2.152-4.01 2.253-6.354l3.053-.657a1.698 1.698 0 0 1 2.056 1.66V28.7z" fill="#fff"/><path d="M32.936 21.043a6.237 6.237 0 0 0-6.23 6.23c0 5.255 4.523 9.629 6.23 9.629 1.527 0 6.23-4.333 6.23-9.629a6.237 6.237 0 0 0-6.23-6.23zm0 8.496a2.266 2.266 0 1 1 0-4.531 2.266 2.266 0 0 1 0 4.53z" fill="#fff"/></svg>