<svg xmlns="http://www.w3.org/2000/svg" width="61" height="19" fill="none">
  <g fill="#fff" fill-opacity=".7">
    <path d="M36.473 5.493h-9.346a.807.807 0 1 0 0 1.614h3.863v10.195c0 .447.362.807.81.807.448 0 .81-.36.81-.807V7.107h3.863a.807.807 0 1 0 0-1.614ZM47.565 16.457l-6.725-.034V6.3a.807.807 0 0 0-.81-.807c-.448 0-.81.36-.81.807v10.747c0 .542.441.983.985.987l7.353.038h.003a.808.808 0 0 0 .004-1.615ZM60.408 17.035 57.19 6.2a.996.996 0 0 0-.948-.707H54.49a.995.995 0 0 0-.95.708l-3.2 10.873a.806.806 0 0 0 .778 1.033.81.81 0 0 0 .777-.58l1.03-3.503h4.9l1.03 3.468a.81.81 0 0 0 1.553-.457ZM53.4 12.409l1.56-5.302h.809l1.576 5.302H53.4ZM23.573 7.145a.807.807 0 1 0 0-1.615h-7.118a.99.99 0 0 0-.99.987v10.565c0 .542.441.984.985.987l7.119.038h.004a.807.807 0 1 0 .004-1.615l-6.494-.034v-4.05h5.241a.807.807 0 1 0 0-1.614h-5.241v-3.65h6.49ZM11.824 6.319a.988.988 0 0 0-.975-.822H9.205c-.496 0-.919.37-.98.854l-.833 6.05H6.86l-.984-6.093-.004-.02a.988.988 0 0 0-.973-.807H3.252a.99.99 0 0 0-.983.867L.79 17.203a.808.808 0 0 0 1.605.195l1.413-10.3h.554l.984 6.093.004.017a.988.988 0 0 0 .973.808h1.617c.496 0 .919-.372.98-.854l.833-6.05h.563l1.603 10.324a.81.81 0 0 0 .934.662.807.807 0 0 0 .662-.931L11.822 6.32l.002-.002ZM55.154 3.762a.815.815 0 0 0 .816-.815V1.706a.815.815 0 0 0-.816-.815.815.815 0 0 0-.817.815v1.241c0 .45.365.815.816.815Z"/>
  </g>
</svg>
